<mxfile host="app.diagrams.net" modified="2023-11-06T01:11:09.701Z" agent="Mozilla/5.0 (Windows NT 10.0; Win64; x64) AppleWebKit/537.36 (KHTML, like Gecko) Chrome/118.0.0.0 Safari/537.36" etag="Bu-WxivNX9NXWQh65hJA" version="22.0.8" type="google">
  <diagram name="Page-1" id="h2Crbd1hbnsb-fY7Zu4p">
    <mxGraphModel grid="1" page="1" gridSize="10" guides="1" tooltips="1" connect="1" arrows="1" fold="1" pageScale="1" pageWidth="850" pageHeight="1100" math="0" shadow="0">
      <root>
        <mxCell id="0" />
        <mxCell id="1" parent="0" />
        <mxCell id="o_Zl0ufaSRQmhO8IQc7K-70" value="Artist" style="rounded=0;whiteSpace=wrap;html=1;" vertex="1" parent="1">
          <mxGeometry x="1030" y="80" width="50" height="30" as="geometry" />
        </mxCell>
        <mxCell id="o_Zl0ufaSRQmhO8IQc7K-71" value="User" style="rounded=0;whiteSpace=wrap;html=1;" vertex="1" parent="1">
          <mxGeometry x="105" y="130" width="50" height="30" as="geometry" />
        </mxCell>
        <mxCell id="o_Zl0ufaSRQmhO8IQc7K-73" value="Comment" style="shape=ext;margin=3;double=1;whiteSpace=wrap;html=1;align=center;" vertex="1" parent="1">
          <mxGeometry x="511.25" y="450" width="80" height="30" as="geometry" />
        </mxCell>
        <mxCell id="o_Zl0ufaSRQmhO8IQc7K-74" value="Client" style="rounded=0;whiteSpace=wrap;html=1;" vertex="1" parent="1">
          <mxGeometry x="155" y="237.5" width="50" height="30" as="geometry" />
        </mxCell>
        <mxCell id="o_Zl0ufaSRQmhO8IQc7K-75" value="Admin" style="rounded=0;whiteSpace=wrap;html=1;" vertex="1" parent="1">
          <mxGeometry x="75" y="237.5" width="50" height="30" as="geometry" />
        </mxCell>
        <mxCell id="o_Zl0ufaSRQmhO8IQc7K-79" value="Producer" style="rounded=0;whiteSpace=wrap;html=1;" vertex="1" parent="1">
          <mxGeometry x="730" y="58.75" width="60" height="30" as="geometry" />
        </mxCell>
        <mxCell id="eHYiYTReSIyvD6H9fJW--7" value="Average rating score&amp;nbsp;" style="ellipse;whiteSpace=wrap;html=1;align=center;dashed=1;" vertex="1" parent="1">
          <mxGeometry x="1090" y="138.75" width="75" height="35" as="geometry" />
        </mxCell>
        <mxCell id="o_Zl0ufaSRQmhO8IQc7K-141" value="Creates" style="shape=rhombus;double=1;perimeter=rhombusPerimeter;whiteSpace=wrap;html=1;align=center;" vertex="1" parent="1">
          <mxGeometry x="300" y="87.5" width="80" height="55" as="geometry" />
        </mxCell>
        <mxCell id="o_Zl0ufaSRQmhO8IQc7K-81" value="" style="endArrow=none;html=1;rounded=0;exitX=0.5;exitY=1;exitDx=0;exitDy=0;entryX=0.5;entryY=0;entryDx=0;entryDy=0;" edge="1" parent="1" source="o_Zl0ufaSRQmhO8IQc7K-71" target="o_Zl0ufaSRQmhO8IQc7K-84">
          <mxGeometry relative="1" as="geometry">
            <mxPoint x="85" y="379.09000000000003" as="sourcePoint" />
            <mxPoint x="245" y="379.09000000000003" as="targetPoint" />
          </mxGeometry>
        </mxCell>
        <mxCell id="o_Zl0ufaSRQmhO8IQc7K-82" value="" style="endArrow=none;html=1;rounded=0;exitX=1;exitY=0.5;exitDx=0;exitDy=0;entryX=0;entryY=0.5;entryDx=0;entryDy=0;" edge="1" parent="1" source="o_Zl0ufaSRQmhO8IQc7K-80" target="o_Zl0ufaSRQmhO8IQc7K-73">
          <mxGeometry width="50" height="50" relative="1" as="geometry">
            <mxPoint x="420" y="480" as="sourcePoint" />
            <mxPoint x="560" y="500" as="targetPoint" />
          </mxGeometry>
        </mxCell>
        <mxCell id="o_Zl0ufaSRQmhO8IQc7K-83" value="" style="endArrow=none;html=1;rounded=0;entryX=0;entryY=0.5;entryDx=0;entryDy=0;exitX=0;exitY=0.5;exitDx=0;exitDy=0;" edge="1" parent="1" source="o_Zl0ufaSRQmhO8IQc7K-71" target="o_Zl0ufaSRQmhO8IQc7K-80">
          <mxGeometry width="50" height="50" relative="1" as="geometry">
            <mxPoint x="140" y="180" as="sourcePoint" />
            <mxPoint x="297.5" y="470" as="targetPoint" />
            <Array as="points">
              <mxPoint x="50" y="145" />
              <mxPoint x="50" y="465" />
            </Array>
          </mxGeometry>
        </mxCell>
        <mxCell id="o_Zl0ufaSRQmhO8IQc7K-84" value="o" style="ellipse;whiteSpace=wrap;html=1;aspect=fixed;" vertex="1" parent="1">
          <mxGeometry x="125" y="187.5" width="20" height="20" as="geometry" />
        </mxCell>
        <mxCell id="o_Zl0ufaSRQmhO8IQc7K-85" value="" style="endArrow=none;html=1;rounded=0;exitX=0;exitY=1;exitDx=0;exitDy=0;entryX=1;entryY=0;entryDx=0;entryDy=0;" edge="1" parent="1" source="o_Zl0ufaSRQmhO8IQc7K-84">
          <mxGeometry relative="1" as="geometry">
            <mxPoint x="150" y="167.5" as="sourcePoint" />
            <mxPoint x="90" y="237.5" as="targetPoint" />
          </mxGeometry>
        </mxCell>
        <mxCell id="o_Zl0ufaSRQmhO8IQc7K-86" value="" style="endArrow=none;html=1;rounded=0;exitX=1;exitY=1;exitDx=0;exitDy=0;entryX=0;entryY=0;entryDx=0;entryDy=0;" edge="1" parent="1" source="o_Zl0ufaSRQmhO8IQc7K-84">
          <mxGeometry relative="1" as="geometry">
            <mxPoint x="160" y="177.5" as="sourcePoint" />
            <mxPoint x="190" y="237.5" as="targetPoint" />
          </mxGeometry>
        </mxCell>
        <mxCell id="o_Zl0ufaSRQmhO8IQc7K-87" value="" style="endArrow=none;html=1;curved=1;rounded=0;" edge="1" parent="1">
          <mxGeometry width="50" height="50" relative="1" as="geometry">
            <mxPoint x="114" y="208" as="sourcePoint" />
            <mxPoint x="123" y="225" as="targetPoint" />
            <Array as="points">
              <mxPoint x="100" y="227" />
            </Array>
          </mxGeometry>
        </mxCell>
        <mxCell id="o_Zl0ufaSRQmhO8IQc7K-88" value="" style="endArrow=none;html=1;curved=1;rounded=0;" edge="1" parent="1">
          <mxGeometry width="50" height="50" relative="1" as="geometry">
            <mxPoint x="156" y="224.5" as="sourcePoint" />
            <mxPoint x="171" y="209.5" as="targetPoint" />
            <Array as="points">
              <mxPoint x="178" y="230.5" />
            </Array>
          </mxGeometry>
        </mxCell>
        <mxCell id="o_Zl0ufaSRQmhO8IQc7K-90" value="d" style="ellipse;whiteSpace=wrap;html=1;aspect=fixed;" vertex="1" parent="1">
          <mxGeometry x="430" y="180" width="20" height="20" as="geometry" />
        </mxCell>
        <mxCell id="o_Zl0ufaSRQmhO8IQc7K-91" value="" style="endArrow=none;html=1;rounded=0;exitX=0;exitY=1;exitDx=0;exitDy=0;entryX=0.5;entryY=0;entryDx=0;entryDy=0;" edge="1" parent="1" source="o_Zl0ufaSRQmhO8IQc7K-90">
          <mxGeometry relative="1" as="geometry">
            <mxPoint x="615" y="310" as="sourcePoint" />
            <mxPoint x="405.0000000000002" y="230" as="targetPoint" />
          </mxGeometry>
        </mxCell>
        <mxCell id="o_Zl0ufaSRQmhO8IQc7K-92" value="" style="endArrow=none;html=1;rounded=0;exitX=1;exitY=1;exitDx=0;exitDy=0;entryX=0.5;entryY=0;entryDx=0;entryDy=0;" edge="1" parent="1" source="o_Zl0ufaSRQmhO8IQc7K-90">
          <mxGeometry relative="1" as="geometry">
            <mxPoint x="625" y="320" as="sourcePoint" />
            <mxPoint x="485.0000000000002" y="230" as="targetPoint" />
          </mxGeometry>
        </mxCell>
        <mxCell id="o_Zl0ufaSRQmhO8IQc7K-93" value="" style="endArrow=none;html=1;curved=1;rounded=0;" edge="1" parent="1">
          <mxGeometry width="50" height="50" relative="1" as="geometry">
            <mxPoint x="414" y="206" as="sourcePoint" />
            <mxPoint x="423" y="223" as="targetPoint" />
            <Array as="points">
              <mxPoint x="400" y="225" />
            </Array>
          </mxGeometry>
        </mxCell>
        <mxCell id="o_Zl0ufaSRQmhO8IQc7K-94" value="" style="endArrow=none;html=1;curved=1;rounded=0;" edge="1" parent="1">
          <mxGeometry width="50" height="50" relative="1" as="geometry">
            <mxPoint x="460" y="224" as="sourcePoint" />
            <mxPoint x="475" y="209" as="targetPoint" />
            <Array as="points">
              <mxPoint x="482" y="230" />
            </Array>
          </mxGeometry>
        </mxCell>
        <mxCell id="o_Zl0ufaSRQmhO8IQc7K-96" value="" style="endArrow=none;html=1;rounded=0;exitX=1;exitY=1;exitDx=0;exitDy=0;entryX=0;entryY=0;entryDx=0;entryDy=0;" edge="1" parent="1" source="o_Zl0ufaSRQmhO8IQc7K-71">
          <mxGeometry width="50" height="50" relative="1" as="geometry">
            <mxPoint x="190" y="200" as="sourcePoint" />
            <mxPoint x="255" y="200" as="targetPoint" />
          </mxGeometry>
        </mxCell>
        <mxCell id="o_Zl0ufaSRQmhO8IQc7K-97" value="" style="endArrow=none;html=1;rounded=0;entryX=0.5;entryY=1;entryDx=0;entryDy=0;exitX=0.5;exitY=0;exitDx=0;exitDy=0;" edge="1" parent="1" source="o_Zl0ufaSRQmhO8IQc7K-90">
          <mxGeometry width="50" height="50" relative="1" as="geometry">
            <mxPoint x="380" y="340" as="sourcePoint" />
            <mxPoint x="440.0000000000002" y="130" as="targetPoint" />
          </mxGeometry>
        </mxCell>
        <mxCell id="o_Zl0ufaSRQmhO8IQc7K-99" value="Consists Of" style="shape=rhombus;double=1;perimeter=rhombusPerimeter;whiteSpace=wrap;html=1;align=center;" vertex="1" parent="1">
          <mxGeometry x="500" y="380" width="102.5" height="40" as="geometry" />
        </mxCell>
        <mxCell id="o_Zl0ufaSRQmhO8IQc7K-100" value="Produces" style="shape=rhombus;perimeter=rhombusPerimeter;whiteSpace=wrap;html=1;align=center;" vertex="1" parent="1">
          <mxGeometry x="730" y="110" width="62.5" height="40" as="geometry" />
        </mxCell>
        <mxCell id="o_Zl0ufaSRQmhO8IQc7K-101" value="" style="endArrow=none;html=1;rounded=0;entryX=1;entryY=0.5;entryDx=0;entryDy=0;exitX=0.5;exitY=0;exitDx=0;exitDy=0;" edge="1" parent="1" source="o_Zl0ufaSRQmhO8IQc7K-99">
          <mxGeometry relative="1" as="geometry">
            <mxPoint x="330" y="310" as="sourcePoint" />
            <mxPoint x="465.0000000000002" y="115" as="targetPoint" />
            <Array as="points">
              <mxPoint x="540" y="190" />
            </Array>
          </mxGeometry>
        </mxCell>
        <mxCell id="o_Zl0ufaSRQmhO8IQc7K-102" value="" style="endArrow=none;html=1;rounded=0;exitX=0.5;exitY=0;exitDx=0;exitDy=0;entryX=0.5;entryY=1;entryDx=0;entryDy=0;" edge="1" parent="1" source="o_Zl0ufaSRQmhO8IQc7K-73" target="o_Zl0ufaSRQmhO8IQc7K-99">
          <mxGeometry relative="1" as="geometry">
            <mxPoint x="102" y="247" as="sourcePoint" />
            <mxPoint x="145" y="280" as="targetPoint" />
          </mxGeometry>
        </mxCell>
        <mxCell id="o_Zl0ufaSRQmhO8IQc7K-103" value="Produces Single" style="shape=rhombus;perimeter=rhombusPerimeter;whiteSpace=wrap;html=1;align=center;" vertex="1" parent="1">
          <mxGeometry x="865" y="240" width="75" height="60" as="geometry" />
        </mxCell>
        <mxCell id="o_Zl0ufaSRQmhO8IQc7K-105" value="Album" style="shape=ext;margin=3;double=1;whiteSpace=wrap;html=1;align=center;" vertex="1" parent="1">
          <mxGeometry x="710" y="195" width="70" height="30" as="geometry" />
        </mxCell>
        <mxCell id="o_Zl0ufaSRQmhO8IQc7K-106" value="Song" style="shape=ext;margin=3;double=1;whiteSpace=wrap;html=1;align=center;" vertex="1" parent="1">
          <mxGeometry x="710" y="317.5" width="70" height="30" as="geometry" />
        </mxCell>
        <mxCell id="o_Zl0ufaSRQmhO8IQc7K-108" value="Written For" style="shape=rhombus;perimeter=rhombusPerimeter;whiteSpace=wrap;html=1;align=center;" vertex="1" parent="1">
          <mxGeometry x="580" y="120" width="60" height="50" as="geometry" />
        </mxCell>
        <mxCell id="o_Zl0ufaSRQmhO8IQc7K-109" value="Written For Single" style="shape=rhombus;perimeter=rhombusPerimeter;whiteSpace=wrap;html=1;align=center;" vertex="1" parent="1">
          <mxGeometry x="580" y="180" width="70" height="50" as="geometry" />
        </mxCell>
        <mxCell id="o_Zl0ufaSRQmhO8IQc7K-110" value="Given For" style="shape=rhombus;perimeter=rhombusPerimeter;whiteSpace=wrap;html=1;align=center;" vertex="1" parent="1">
          <mxGeometry x="585" y="235" width="60" height="40" as="geometry" />
        </mxCell>
        <mxCell id="o_Zl0ufaSRQmhO8IQc7K-111" value="Given For Single" style="shape=rhombus;perimeter=rhombusPerimeter;whiteSpace=wrap;html=1;align=center;" vertex="1" parent="1">
          <mxGeometry x="601.25" y="275" width="80" height="50" as="geometry" />
        </mxCell>
        <mxCell id="o_Zl0ufaSRQmhO8IQc7K-112" value="" style="endArrow=none;html=1;rounded=0;exitX=1;exitY=0.25;exitDx=0;exitDy=0;entryX=0;entryY=0.5;entryDx=0;entryDy=0;" edge="1" parent="1" source="o_Zl0ufaSRQmhO8IQc7K-71" target="o_Zl0ufaSRQmhO8IQc7K-141">
          <mxGeometry relative="1" as="geometry">
            <mxPoint x="410" y="280" as="sourcePoint" />
            <mxPoint x="288" y="115" as="targetPoint" />
          </mxGeometry>
        </mxCell>
        <mxCell id="o_Zl0ufaSRQmhO8IQc7K-113" value="" style="endArrow=none;html=1;rounded=0;entryX=0;entryY=0.5;entryDx=0;entryDy=0;exitX=1;exitY=0.5;exitDx=0;exitDy=0;" edge="1" parent="1" source="o_Zl0ufaSRQmhO8IQc7K-141">
          <mxGeometry relative="1" as="geometry">
            <mxPoint x="390" y="115" as="sourcePoint" />
            <mxPoint x="415.0000000000002" y="115" as="targetPoint" />
          </mxGeometry>
        </mxCell>
        <mxCell id="o_Zl0ufaSRQmhO8IQc7K-114" value="" style="endArrow=none;html=1;rounded=0;entryX=0;entryY=0.5;entryDx=0;entryDy=0;exitX=0.25;exitY=0;exitDx=0;exitDy=0;" edge="1" parent="1" target="o_Zl0ufaSRQmhO8IQc7K-108">
          <mxGeometry relative="1" as="geometry">
            <mxPoint x="387.5000000000002" y="230" as="sourcePoint" />
            <mxPoint x="590" y="300" as="targetPoint" />
            <Array as="points">
              <mxPoint x="388" y="150" />
            </Array>
          </mxGeometry>
        </mxCell>
        <mxCell id="o_Zl0ufaSRQmhO8IQc7K-115" value="" style="endArrow=none;html=1;rounded=0;entryX=0;entryY=0.5;entryDx=0;entryDy=0;exitX=0.75;exitY=0;exitDx=0;exitDy=0;" edge="1" parent="1" target="o_Zl0ufaSRQmhO8IQc7K-110">
          <mxGeometry relative="1" as="geometry">
            <mxPoint x="305.5" y="410" as="sourcePoint" />
            <mxPoint x="650" y="210" as="targetPoint" />
          </mxGeometry>
        </mxCell>
        <mxCell id="o_Zl0ufaSRQmhO8IQc7K-116" value="" style="endArrow=none;html=1;rounded=0;exitX=1;exitY=0;exitDx=0;exitDy=0;entryX=0;entryY=0.5;entryDx=0;entryDy=0;" edge="1" parent="1" target="o_Zl0ufaSRQmhO8IQc7K-111">
          <mxGeometry relative="1" as="geometry">
            <mxPoint x="418" y="410" as="sourcePoint" />
            <mxPoint x="690" y="210" as="targetPoint" />
          </mxGeometry>
        </mxCell>
        <mxCell id="o_Zl0ufaSRQmhO8IQc7K-117" value="" style="endArrow=none;html=1;rounded=0;exitX=1;exitY=0.5;exitDx=0;exitDy=0;entryX=0;entryY=0.5;entryDx=0;entryDy=0;" edge="1" parent="1" source="o_Zl0ufaSRQmhO8IQc7K-108" target="o_Zl0ufaSRQmhO8IQc7K-105">
          <mxGeometry relative="1" as="geometry">
            <mxPoint x="550" y="270" as="sourcePoint" />
            <mxPoint x="710" y="270" as="targetPoint" />
          </mxGeometry>
        </mxCell>
        <mxCell id="o_Zl0ufaSRQmhO8IQc7K-118" value="" style="endArrow=none;html=1;rounded=0;exitX=1;exitY=0.5;exitDx=0;exitDy=0;entryX=0;entryY=0.75;entryDx=0;entryDy=0;" edge="1" parent="1" source="o_Zl0ufaSRQmhO8IQc7K-110" target="o_Zl0ufaSRQmhO8IQc7K-105">
          <mxGeometry relative="1" as="geometry">
            <mxPoint x="550" y="270" as="sourcePoint" />
            <mxPoint x="710" y="270" as="targetPoint" />
          </mxGeometry>
        </mxCell>
        <mxCell id="o_Zl0ufaSRQmhO8IQc7K-119" value="" style="endArrow=none;html=1;rounded=0;entryX=0;entryY=0.75;entryDx=0;entryDy=0;exitX=1;exitY=0.5;exitDx=0;exitDy=0;" edge="1" parent="1" source="o_Zl0ufaSRQmhO8IQc7K-111" target="o_Zl0ufaSRQmhO8IQc7K-106">
          <mxGeometry relative="1" as="geometry">
            <mxPoint x="550" y="290" as="sourcePoint" />
            <mxPoint x="710" y="290" as="targetPoint" />
          </mxGeometry>
        </mxCell>
        <mxCell id="o_Zl0ufaSRQmhO8IQc7K-120" value="" style="endArrow=none;html=1;rounded=0;exitX=1;exitY=0;exitDx=0;exitDy=0;entryX=0;entryY=0.5;entryDx=0;entryDy=0;" edge="1" parent="1" target="o_Zl0ufaSRQmhO8IQc7K-109">
          <mxGeometry relative="1" as="geometry">
            <mxPoint x="520.0000000000002" y="230" as="sourcePoint" />
            <mxPoint x="710" y="290" as="targetPoint" />
          </mxGeometry>
        </mxCell>
        <mxCell id="o_Zl0ufaSRQmhO8IQc7K-121" value="" style="endArrow=none;html=1;rounded=0;exitX=1;exitY=0.5;exitDx=0;exitDy=0;entryX=0;entryY=0.25;entryDx=0;entryDy=0;" edge="1" parent="1" source="o_Zl0ufaSRQmhO8IQc7K-109" target="o_Zl0ufaSRQmhO8IQc7K-106">
          <mxGeometry relative="1" as="geometry">
            <mxPoint x="550" y="290" as="sourcePoint" />
            <mxPoint x="710" y="290" as="targetPoint" />
          </mxGeometry>
        </mxCell>
        <mxCell id="o_Zl0ufaSRQmhO8IQc7K-122" value="" style="endArrow=none;html=1;rounded=0;entryX=0;entryY=1;entryDx=0;entryDy=0;exitX=1;exitY=0.5;exitDx=0;exitDy=0;" edge="1" parent="1" target="o_Zl0ufaSRQmhO8IQc7K-70">
          <mxGeometry relative="1" as="geometry">
            <mxPoint x="942.5" y="125.00000000000011" as="sourcePoint" />
            <mxPoint x="850" y="250" as="targetPoint" />
          </mxGeometry>
        </mxCell>
        <mxCell id="o_Zl0ufaSRQmhO8IQc7K-123" value="" style="endArrow=none;html=1;rounded=0;entryX=0;entryY=0.5;entryDx=0;entryDy=0;exitX=1;exitY=0.25;exitDx=0;exitDy=0;" edge="1" parent="1" source="o_Zl0ufaSRQmhO8IQc7K-105" target="ZXEZ7dp9XjpjEU1cNxrp-1">
          <mxGeometry relative="1" as="geometry">
            <mxPoint x="740" y="240" as="sourcePoint" />
            <mxPoint x="862.5" y="125.00000000000011" as="targetPoint" />
          </mxGeometry>
        </mxCell>
        <mxCell id="o_Zl0ufaSRQmhO8IQc7K-124" value="" style="endArrow=none;html=1;rounded=0;entryX=0.5;entryY=1;entryDx=0;entryDy=0;exitX=1;exitY=0.5;exitDx=0;exitDy=0;" edge="1" parent="1" target="o_Zl0ufaSRQmhO8IQc7K-70">
          <mxGeometry relative="1" as="geometry">
            <mxPoint x="940" y="200.0000000000001" as="sourcePoint" />
            <mxPoint x="900" y="240" as="targetPoint" />
          </mxGeometry>
        </mxCell>
        <mxCell id="o_Zl0ufaSRQmhO8IQc7K-125" value="" style="endArrow=none;html=1;rounded=0;entryX=0;entryY=0.5;entryDx=0;entryDy=0;exitX=1;exitY=0;exitDx=0;exitDy=0;" edge="1" parent="1" source="o_Zl0ufaSRQmhO8IQc7K-106" target="ZXEZ7dp9XjpjEU1cNxrp-2">
          <mxGeometry relative="1" as="geometry">
            <mxPoint x="740" y="270" as="sourcePoint" />
            <mxPoint x="860" y="200.0000000000001" as="targetPoint" />
          </mxGeometry>
        </mxCell>
        <mxCell id="o_Zl0ufaSRQmhO8IQc7K-126" value="" style="endArrow=none;html=1;rounded=0;exitX=0.5;exitY=1;exitDx=0;exitDy=0;entryX=0.5;entryY=0;entryDx=0;entryDy=0;" edge="1" parent="1" source="o_Zl0ufaSRQmhO8IQc7K-79" target="o_Zl0ufaSRQmhO8IQc7K-100">
          <mxGeometry relative="1" as="geometry">
            <mxPoint x="760" y="258.75" as="sourcePoint" />
            <mxPoint x="920" y="258.75" as="targetPoint" />
          </mxGeometry>
        </mxCell>
        <mxCell id="o_Zl0ufaSRQmhO8IQc7K-127" value="" style="endArrow=none;html=1;rounded=0;exitX=0.5;exitY=1;exitDx=0;exitDy=0;entryX=0.75;entryY=0;entryDx=0;entryDy=0;" edge="1" parent="1" source="o_Zl0ufaSRQmhO8IQc7K-100" target="o_Zl0ufaSRQmhO8IQc7K-105">
          <mxGeometry relative="1" as="geometry">
            <mxPoint x="760" y="258.75" as="sourcePoint" />
            <mxPoint x="765" y="183.7500000000001" as="targetPoint" />
          </mxGeometry>
        </mxCell>
        <mxCell id="o_Zl0ufaSRQmhO8IQc7K-128" value="" style="endArrow=none;html=1;rounded=0;entryX=0;entryY=0.5;entryDx=0;entryDy=0;exitX=1;exitY=0.5;exitDx=0;exitDy=0;" edge="1" parent="1" source="o_Zl0ufaSRQmhO8IQc7K-106" target="o_Zl0ufaSRQmhO8IQc7K-103">
          <mxGeometry relative="1" as="geometry">
            <mxPoint x="740" y="270" as="sourcePoint" />
            <mxPoint x="900" y="270" as="targetPoint" />
          </mxGeometry>
        </mxCell>
        <mxCell id="o_Zl0ufaSRQmhO8IQc7K-129" value="d" style="ellipse;whiteSpace=wrap;html=1;aspect=fixed;" vertex="1" parent="1">
          <mxGeometry x="336" y="360" width="20" height="20" as="geometry" />
        </mxCell>
        <mxCell id="o_Zl0ufaSRQmhO8IQc7K-130" value="" style="endArrow=none;html=1;curved=1;rounded=0;" edge="1" parent="1">
          <mxGeometry width="50" height="50" relative="1" as="geometry">
            <mxPoint x="312" y="380" as="sourcePoint" />
            <mxPoint x="321" y="397" as="targetPoint" />
            <Array as="points">
              <mxPoint x="298" y="399" />
            </Array>
          </mxGeometry>
        </mxCell>
        <mxCell id="o_Zl0ufaSRQmhO8IQc7K-131" value="" style="endArrow=none;html=1;curved=1;rounded=0;" edge="1" parent="1">
          <mxGeometry width="50" height="50" relative="1" as="geometry">
            <mxPoint x="364" y="400" as="sourcePoint" />
            <mxPoint x="379" y="385" as="targetPoint" />
            <Array as="points">
              <mxPoint x="386" y="406" />
            </Array>
          </mxGeometry>
        </mxCell>
        <mxCell id="o_Zl0ufaSRQmhO8IQc7K-132" value="" style="endArrow=none;html=1;rounded=0;entryX=0.25;entryY=1;entryDx=0;entryDy=0;exitX=0.5;exitY=0;exitDx=0;exitDy=0;" edge="1" parent="1" source="o_Zl0ufaSRQmhO8IQc7K-129">
          <mxGeometry relative="1" as="geometry">
            <mxPoint x="390" y="380" as="sourcePoint" />
            <mxPoint x="330.5" y="335" as="targetPoint" />
          </mxGeometry>
        </mxCell>
        <mxCell id="o_Zl0ufaSRQmhO8IQc7K-134" value="" style="endArrow=none;html=1;rounded=0;entryX=0;entryY=1;entryDx=0;entryDy=0;exitX=0.5;exitY=0;exitDx=0;exitDy=0;" edge="1" parent="1" target="o_Zl0ufaSRQmhO8IQc7K-129">
          <mxGeometry relative="1" as="geometry">
            <mxPoint x="283" y="410" as="sourcePoint" />
            <mxPoint x="538" y="340" as="targetPoint" />
          </mxGeometry>
        </mxCell>
        <mxCell id="o_Zl0ufaSRQmhO8IQc7K-136" value="" style="endArrow=none;html=1;rounded=0;exitX=1;exitY=1;exitDx=0;exitDy=0;entryX=0.671;entryY=0.003;entryDx=0;entryDy=0;entryPerimeter=0;" edge="1" parent="1" source="o_Zl0ufaSRQmhO8IQc7K-129">
          <mxGeometry relative="1" as="geometry">
            <mxPoint x="408" y="390" as="sourcePoint" />
            <mxPoint x="391.02200000000016" y="410.0899999999999" as="targetPoint" />
          </mxGeometry>
        </mxCell>
        <mxCell id="eHYiYTReSIyvD6H9fJW--1" value="Artist ID" style="ellipse;whiteSpace=wrap;html=1;align=center;fontStyle=4;" vertex="1" parent="1">
          <mxGeometry x="1080" y="40" width="60" height="25" as="geometry" />
        </mxCell>
        <mxCell id="o_Zl0ufaSRQmhO8IQc7K-137" value="Rating" style="shape=ext;margin=3;double=1;whiteSpace=wrap;html=1;align=center;" vertex="1" parent="1">
          <mxGeometry x="303" y="310" width="50" height="30" as="geometry" />
        </mxCell>
        <mxCell id="eHYiYTReSIyvD6H9fJW--3" value="Name" style="ellipse;whiteSpace=wrap;html=1;align=center;" vertex="1" parent="1">
          <mxGeometry x="1100" y="75" width="50" height="20" as="geometry" />
        </mxCell>
        <mxCell id="eHYiYTReSIyvD6H9fJW--4" value="" style="endArrow=none;html=1;rounded=0;exitX=0;exitY=0.5;exitDx=0;exitDy=0;entryX=1;entryY=0.5;entryDx=0;entryDy=0;" edge="1" parent="1" source="eHYiYTReSIyvD6H9fJW--3" target="o_Zl0ufaSRQmhO8IQc7K-70">
          <mxGeometry relative="1" as="geometry">
            <mxPoint x="192" y="227" as="sourcePoint" />
            <mxPoint x="1100" y="150" as="targetPoint" />
          </mxGeometry>
        </mxCell>
        <mxCell id="o_Zl0ufaSRQmhO8IQc7K-138" value="Review" style="shape=ext;margin=3;double=1;whiteSpace=wrap;html=1;align=center;" vertex="1" parent="1">
          <mxGeometry x="410" y="100" width="70" height="30" as="geometry" />
        </mxCell>
        <mxCell id="eHYiYTReSIyvD6H9fJW--5" value="" style="endArrow=none;html=1;rounded=0;exitX=0;exitY=0.5;exitDx=0;exitDy=0;entryX=0.75;entryY=0;entryDx=0;entryDy=0;" edge="1" parent="1" source="eHYiYTReSIyvD6H9fJW--1" target="o_Zl0ufaSRQmhO8IQc7K-70">
          <mxGeometry relative="1" as="geometry">
            <mxPoint x="520" y="280" as="sourcePoint" />
            <mxPoint x="680" y="280" as="targetPoint" />
          </mxGeometry>
        </mxCell>
        <mxCell id="o_Zl0ufaSRQmhO8IQc7K-139" value="Album Review" style="shape=ext;margin=3;double=1;whiteSpace=wrap;html=1;align=center;" vertex="1" parent="1">
          <mxGeometry x="370" y="230" width="70" height="40" as="geometry" />
        </mxCell>
        <mxCell id="o_Zl0ufaSRQmhO8IQc7K-140" value="Song Review" style="shape=ext;margin=3;double=1;whiteSpace=wrap;html=1;align=center;" vertex="1" parent="1">
          <mxGeometry x="450" y="230" width="70" height="40" as="geometry" />
        </mxCell>
        <mxCell id="2I1upul8XeKzD1OsK9Qt-34" value="" style="endArrow=none;html=1;rounded=0;entryX=0.75;entryY=1;entryDx=0;entryDy=0;exitX=1;exitY=1;exitDx=0;exitDy=0;" edge="1" parent="1" source="o_Zl0ufaSRQmhO8IQc7K-105" target="o_Zl0ufaSRQmhO8IQc7K-70">
          <mxGeometry width="50" height="50" relative="1" as="geometry">
            <mxPoint x="880" y="400" as="sourcePoint" />
            <mxPoint x="1020" y="210" as="targetPoint" />
            <Array as="points">
              <mxPoint x="900" y="360" />
            </Array>
          </mxGeometry>
        </mxCell>
        <mxCell id="o_Zl0ufaSRQmhO8IQc7K-80" value="Writes" style="shape=rhombus;perimeter=rhombusPerimeter;whiteSpace=wrap;html=1;align=center;" vertex="1" parent="1">
          <mxGeometry x="330" y="450" width="50" height="30" as="geometry" />
        </mxCell>
        <mxCell id="2I1upul8XeKzD1OsK9Qt-35" value="Produces Their" style="shape=rhombus;perimeter=rhombusPerimeter;whiteSpace=wrap;html=1;align=center;" vertex="1" parent="1">
          <mxGeometry x="865" y="325" width="75" height="60" as="geometry" />
        </mxCell>
        <mxCell id="2I1upul8XeKzD1OsK9Qt-36" value="" style="endArrow=none;html=1;rounded=0;exitX=1;exitY=1;exitDx=0;exitDy=0;" edge="1" parent="1" source="2I1upul8XeKzD1OsK9Qt-37">
          <mxGeometry width="50" height="50" relative="1" as="geometry">
            <mxPoint x="900" y="460" as="sourcePoint" />
            <mxPoint x="1070" y="110" as="targetPoint" />
            <Array as="points">
              <mxPoint x="910" y="450" />
            </Array>
          </mxGeometry>
        </mxCell>
        <mxCell id="2I1upul8XeKzD1OsK9Qt-37" value="Produces Their Single" style="shape=rhombus;perimeter=rhombusPerimeter;whiteSpace=wrap;html=1;align=center;" vertex="1" parent="1">
          <mxGeometry x="867.5" y="420" width="82.5" height="70" as="geometry" />
        </mxCell>
        <mxCell id="eHYiYTReSIyvD6H9fJW--9" value="Producer ID" style="ellipse;whiteSpace=wrap;html=1;align=center;fontStyle=4;" vertex="1" parent="1">
          <mxGeometry x="690" y="18.75" width="70" height="25" as="geometry" />
        </mxCell>
        <mxCell id="2I1upul8XeKzD1OsK9Qt-38" value="" style="endArrow=none;html=1;rounded=0;exitX=1;exitY=1;exitDx=0;exitDy=0;entryX=0.332;entryY=0.166;entryDx=0;entryDy=0;entryPerimeter=0;" edge="1" parent="1" source="o_Zl0ufaSRQmhO8IQc7K-106" target="2I1upul8XeKzD1OsK9Qt-37">
          <mxGeometry width="50" height="50" relative="1" as="geometry">
            <mxPoint x="780" y="300" as="sourcePoint" />
            <mxPoint x="890" y="440" as="targetPoint" />
            <Array as="points" />
          </mxGeometry>
        </mxCell>
        <mxCell id="eHYiYTReSIyvD6H9fJW--8" value="" style="endArrow=none;html=1;rounded=0;exitX=0;exitY=0.5;exitDx=0;exitDy=0;entryX=1;entryY=0.75;entryDx=0;entryDy=0;" edge="1" parent="1" source="eHYiYTReSIyvD6H9fJW--7" target="o_Zl0ufaSRQmhO8IQc7K-70">
          <mxGeometry relative="1" as="geometry">
            <mxPoint x="520" y="280" as="sourcePoint" />
            <mxPoint x="680" y="280" as="targetPoint" />
          </mxGeometry>
        </mxCell>
        <mxCell id="o_Zl0ufaSRQmhO8IQc7K-143" value="Gives" style="shape=rhombus;double=1;perimeter=rhombusPerimeter;whiteSpace=wrap;html=1;align=center;" vertex="1" parent="1">
          <mxGeometry x="248" y="175" width="60" height="60" as="geometry" />
        </mxCell>
        <mxCell id="eHYiYTReSIyvD6H9fJW--10" value="Name" style="ellipse;whiteSpace=wrap;html=1;align=center;" vertex="1" parent="1">
          <mxGeometry x="770" y="23.75" width="50" height="20" as="geometry" />
        </mxCell>
        <mxCell id="o_Zl0ufaSRQmhO8IQc7K-144" value="" style="endArrow=none;html=1;rounded=0;entryX=1;entryY=1;entryDx=0;entryDy=0;exitX=0;exitY=0;exitDx=0;exitDy=0;" edge="1" parent="1" source="o_Zl0ufaSRQmhO8IQc7K-103" target="o_Zl0ufaSRQmhO8IQc7K-79">
          <mxGeometry relative="1" as="geometry">
            <mxPoint x="640" y="270" as="sourcePoint" />
            <mxPoint x="800" y="270" as="targetPoint" />
          </mxGeometry>
        </mxCell>
        <mxCell id="eHYiYTReSIyvD6H9fJW--11" value="" style="endArrow=none;html=1;rounded=0;exitX=0.5;exitY=1;exitDx=0;exitDy=0;entryX=0.75;entryY=0;entryDx=0;entryDy=0;" edge="1" parent="1" source="eHYiYTReSIyvD6H9fJW--10" target="o_Zl0ufaSRQmhO8IQc7K-79">
          <mxGeometry relative="1" as="geometry">
            <mxPoint x="1110" y="51.75" as="sourcePoint" />
            <mxPoint x="1098" y="78.75" as="targetPoint" />
          </mxGeometry>
        </mxCell>
        <mxCell id="eHYiYTReSIyvD6H9fJW--12" value="" style="endArrow=none;html=1;rounded=0;exitX=0.5;exitY=1;exitDx=0;exitDy=0;entryX=0.25;entryY=0;entryDx=0;entryDy=0;" edge="1" parent="1" source="eHYiYTReSIyvD6H9fJW--9" target="o_Zl0ufaSRQmhO8IQc7K-79">
          <mxGeometry relative="1" as="geometry">
            <mxPoint x="1110" y="51.75" as="sourcePoint" />
            <mxPoint x="1098" y="78.75" as="targetPoint" />
          </mxGeometry>
        </mxCell>
        <mxCell id="eHYiYTReSIyvD6H9fJW--13" value="Username" style="ellipse;whiteSpace=wrap;html=1;align=center;fontStyle=4;" vertex="1" parent="1">
          <mxGeometry x="90" y="72.5" width="70" height="25" as="geometry" />
        </mxCell>
        <mxCell id="eHYiYTReSIyvD6H9fJW--14" value="" style="endArrow=none;html=1;rounded=0;exitX=0.5;exitY=1;exitDx=0;exitDy=0;entryX=0.5;entryY=0;entryDx=0;entryDy=0;" edge="1" parent="1" source="eHYiYTReSIyvD6H9fJW--13" target="o_Zl0ufaSRQmhO8IQc7K-71">
          <mxGeometry relative="1" as="geometry">
            <mxPoint x="715" y="65" as="sourcePoint" />
            <mxPoint x="743" y="80" as="targetPoint" />
          </mxGeometry>
        </mxCell>
        <mxCell id="eHYiYTReSIyvD6H9fJW--16" value="Name" style="ellipse;whiteSpace=wrap;html=1;align=center;" vertex="1" parent="1">
          <mxGeometry x="135" y="97.5" width="50" height="20" as="geometry" />
        </mxCell>
        <mxCell id="eHYiYTReSIyvD6H9fJW--17" value="Password" style="ellipse;whiteSpace=wrap;html=1;align=center;" vertex="1" parent="1">
          <mxGeometry x="30" y="95" width="60" height="20" as="geometry" />
        </mxCell>
        <mxCell id="eHYiYTReSIyvD6H9fJW--18" value="" style="endArrow=none;html=1;rounded=0;exitX=0.5;exitY=1;exitDx=0;exitDy=0;entryX=1;entryY=0;entryDx=0;entryDy=0;" edge="1" parent="1" source="eHYiYTReSIyvD6H9fJW--16" target="o_Zl0ufaSRQmhO8IQc7K-71">
          <mxGeometry relative="1" as="geometry">
            <mxPoint x="135" y="108" as="sourcePoint" />
            <mxPoint x="140" y="140" as="targetPoint" />
          </mxGeometry>
        </mxCell>
        <mxCell id="eHYiYTReSIyvD6H9fJW--19" value="" style="endArrow=none;html=1;rounded=0;exitX=1;exitY=0.5;exitDx=0;exitDy=0;entryX=0;entryY=0;entryDx=0;entryDy=0;" edge="1" parent="1" source="eHYiYTReSIyvD6H9fJW--17" target="o_Zl0ufaSRQmhO8IQc7K-71">
          <mxGeometry relative="1" as="geometry">
            <mxPoint x="145" y="118" as="sourcePoint" />
            <mxPoint x="150" y="150" as="targetPoint" />
          </mxGeometry>
        </mxCell>
        <mxCell id="o_Zl0ufaSRQmhO8IQc7K-146" value="" style="endArrow=none;html=1;rounded=0;exitX=0.5;exitY=1;exitDx=0;exitDy=0;entryX=0.25;entryY=0;entryDx=0;entryDy=0;" edge="1" parent="1" target="o_Zl0ufaSRQmhO8IQc7K-138">
          <mxGeometry relative="1" as="geometry">
            <mxPoint x="405" y="80" as="sourcePoint" />
            <mxPoint x="660" y="200" as="targetPoint" />
          </mxGeometry>
        </mxCell>
        <mxCell id="o_Zl0ufaSRQmhO8IQc7K-148" value="Title" style="ellipse;whiteSpace=wrap;html=1;align=center;" vertex="1" parent="1">
          <mxGeometry x="450" y="43.75" width="40" height="28.75" as="geometry" />
        </mxCell>
        <mxCell id="o_Zl0ufaSRQmhO8IQc7K-149" value="" style="endArrow=none;html=1;rounded=0;entryX=0.5;entryY=1;entryDx=0;entryDy=0;exitX=0.75;exitY=0;exitDx=0;exitDy=0;" edge="1" parent="1" source="o_Zl0ufaSRQmhO8IQc7K-138" target="o_Zl0ufaSRQmhO8IQc7K-148">
          <mxGeometry relative="1" as="geometry">
            <mxPoint x="500" y="200" as="sourcePoint" />
            <mxPoint x="660" y="200" as="targetPoint" />
          </mxGeometry>
        </mxCell>
        <mxCell id="eHYiYTReSIyvD6H9fJW--21" value="Lyric Score" style="ellipse;whiteSpace=wrap;html=1;align=center;" vertex="1" parent="1">
          <mxGeometry x="135" y="315" width="50" height="35" as="geometry" />
        </mxCell>
        <mxCell id="o_Zl0ufaSRQmhO8IQc7K-150" value="Body" style="ellipse;whiteSpace=wrap;html=1;align=center;" vertex="1" parent="1">
          <mxGeometry x="501.25" y="47.5" width="48.75" height="25" as="geometry" />
        </mxCell>
        <mxCell id="o_Zl0ufaSRQmhO8IQc7K-151" value="" style="endArrow=none;html=1;rounded=0;entryX=0;entryY=1;entryDx=0;entryDy=0;exitX=1;exitY=0;exitDx=0;exitDy=0;" edge="1" parent="1" source="o_Zl0ufaSRQmhO8IQc7K-138" target="o_Zl0ufaSRQmhO8IQc7K-150">
          <mxGeometry relative="1" as="geometry">
            <mxPoint x="480" y="250" as="sourcePoint" />
            <mxPoint x="640" y="250" as="targetPoint" />
          </mxGeometry>
        </mxCell>
        <mxCell id="eHYiYTReSIyvD6H9fJW--22" value="Instrumental Score" style="ellipse;whiteSpace=wrap;html=1;align=center;" vertex="1" parent="1">
          <mxGeometry x="115" y="365" width="90" height="35" as="geometry" />
        </mxCell>
        <mxCell id="2I1upul8XeKzD1OsK9Qt-43" value="" style="shape=link;html=1;rounded=0;entryX=0.038;entryY=0.033;entryDx=0;entryDy=0;entryPerimeter=0;exitX=0.503;exitY=0.964;exitDx=0;exitDy=0;exitPerimeter=0;width=-3.3962264150943398;" edge="1" parent="1" source="o_Zl0ufaSRQmhO8IQc7K-143" target="o_Zl0ufaSRQmhO8IQc7K-137">
          <mxGeometry relative="1" as="geometry">
            <mxPoint x="280" y="240" as="sourcePoint" />
            <mxPoint x="410" y="280" as="targetPoint" />
          </mxGeometry>
        </mxCell>
        <mxCell id="o_Zl0ufaSRQmhO8IQc7K-152" value="Includes" style="shape=rhombus;perimeter=rhombusPerimeter;whiteSpace=wrap;html=1;align=center;" vertex="1" parent="1">
          <mxGeometry x="308" y="170" width="72" height="60" as="geometry" />
        </mxCell>
        <mxCell id="2I1upul8XeKzD1OsK9Qt-45" value="1" style="text;html=1;strokeColor=none;fillColor=none;align=center;verticalAlign=middle;whiteSpace=wrap;rounded=0;" vertex="1" parent="1">
          <mxGeometry x="240" y="187.5" width="10" height="5" as="geometry" />
        </mxCell>
        <mxCell id="o_Zl0ufaSRQmhO8IQc7K-153" value="" style="endArrow=none;html=1;rounded=0;entryX=0;entryY=1;entryDx=0;entryDy=0;exitX=0.5;exitY=0;exitDx=0;exitDy=0;" edge="1" parent="1" source="o_Zl0ufaSRQmhO8IQc7K-152" target="o_Zl0ufaSRQmhO8IQc7K-138">
          <mxGeometry relative="1" as="geometry">
            <mxPoint x="360" y="230" as="sourcePoint" />
            <mxPoint x="520" y="230" as="targetPoint" />
          </mxGeometry>
        </mxCell>
        <mxCell id="eHYiYTReSIyvD6H9fJW--23" value="Vibe Score" style="ellipse;whiteSpace=wrap;html=1;align=center;" vertex="1" parent="1">
          <mxGeometry x="220" y="360" width="50" height="35" as="geometry" />
        </mxCell>
        <mxCell id="o_Zl0ufaSRQmhO8IQc7K-154" value="" style="endArrow=none;html=1;rounded=0;exitX=0.5;exitY=1;exitDx=0;exitDy=0;entryX=0.75;entryY=0;entryDx=0;entryDy=0;" edge="1" parent="1" source="o_Zl0ufaSRQmhO8IQc7K-152" target="o_Zl0ufaSRQmhO8IQc7K-137">
          <mxGeometry relative="1" as="geometry">
            <mxPoint x="360" y="270" as="sourcePoint" />
            <mxPoint x="520" y="270" as="targetPoint" />
          </mxGeometry>
        </mxCell>
        <mxCell id="o_Zl0ufaSRQmhO8IQc7K-155" value="(0,1)" style="text;html=1;align=center;verticalAlign=middle;resizable=0;points=[];autosize=1;strokeColor=none;fillColor=none;" vertex="1" parent="1">
          <mxGeometry x="303" y="220" width="50" height="30" as="geometry" />
        </mxCell>
        <mxCell id="2I1upul8XeKzD1OsK9Qt-47" value="N" style="text;html=1;strokeColor=none;fillColor=none;align=center;verticalAlign=middle;whiteSpace=wrap;rounded=0;" vertex="1" parent="1">
          <mxGeometry x="280" y="235" width="20" height="5" as="geometry" />
        </mxCell>
        <mxCell id="o_Zl0ufaSRQmhO8IQc7K-156" value="(1,1)" style="text;html=1;align=center;verticalAlign=middle;resizable=0;points=[];autosize=1;strokeColor=none;fillColor=none;" vertex="1" parent="1">
          <mxGeometry x="338" y="157.5" width="50" height="30" as="geometry" />
        </mxCell>
        <mxCell id="eHYiYTReSIyvD6H9fJW--24" value="Originality Score" style="ellipse;whiteSpace=wrap;html=1;align=center;" vertex="1" parent="1">
          <mxGeometry x="210" y="282.5" width="70" height="35" as="geometry" />
        </mxCell>
        <mxCell id="2I1upul8XeKzD1OsK9Qt-54" value="N" style="text;html=1;strokeColor=none;fillColor=none;align=center;verticalAlign=middle;whiteSpace=wrap;rounded=0;" vertex="1" parent="1">
          <mxGeometry x="380" y="105" width="10" height="5" as="geometry" />
        </mxCell>
        <mxCell id="eHYiYTReSIyvD6H9fJW--33" value="Overall Score" style="ellipse;whiteSpace=wrap;html=1;align=center;dashed=1;" vertex="1" parent="1">
          <mxGeometry x="365" y="320" width="60" height="30" as="geometry" />
        </mxCell>
        <mxCell id="2I1upul8XeKzD1OsK9Qt-50" value="N" style="text;html=1;strokeColor=none;fillColor=none;align=center;verticalAlign=middle;whiteSpace=wrap;rounded=0;" vertex="1" parent="1">
          <mxGeometry x="380" y="457.5" width="20" height="2.5" as="geometry" />
        </mxCell>
        <mxCell id="eHYiYTReSIyvD6H9fJW--32" value="" style="endArrow=none;html=1;rounded=0;exitX=0;exitY=0.5;exitDx=0;exitDy=0;entryX=1;entryY=0.5;entryDx=0;entryDy=0;" edge="1" parent="1" source="o_Zl0ufaSRQmhO8IQc7K-137" target="eHYiYTReSIyvD6H9fJW--21">
          <mxGeometry relative="1" as="geometry">
            <mxPoint x="313" y="343" as="sourcePoint" />
            <mxPoint x="202" y="380" as="targetPoint" />
          </mxGeometry>
        </mxCell>
        <mxCell id="eHYiYTReSIyvD6H9fJW--26" value="" style="endArrow=none;html=1;rounded=0;exitX=0.25;exitY=1;exitDx=0;exitDy=0;entryX=1;entryY=0.5;entryDx=0;entryDy=0;" edge="1" parent="1" source="o_Zl0ufaSRQmhO8IQc7K-137" target="eHYiYTReSIyvD6H9fJW--23">
          <mxGeometry relative="1" as="geometry">
            <mxPoint x="321" y="350" as="sourcePoint" />
            <mxPoint x="369" y="330" as="targetPoint" />
          </mxGeometry>
        </mxCell>
        <mxCell id="2I1upul8XeKzD1OsK9Qt-51" value="1" style="text;html=1;strokeColor=none;fillColor=none;align=center;verticalAlign=middle;whiteSpace=wrap;rounded=0;" vertex="1" parent="1">
          <mxGeometry x="318" y="455" width="10" height="5" as="geometry" />
        </mxCell>
        <mxCell id="2I1upul8XeKzD1OsK9Qt-52" value="" style="endArrow=none;html=1;rounded=0;entryX=0;entryY=0.5;entryDx=0;entryDy=0;exitX=0.921;exitY=0.581;exitDx=0;exitDy=0;exitPerimeter=0;" edge="1" parent="1" source="o_Zl0ufaSRQmhO8IQc7K-141">
          <mxGeometry relative="1" as="geometry">
            <mxPoint x="375" y="119.82" as="sourcePoint" />
            <mxPoint x="410.0000000000002" y="119.82" as="targetPoint" />
          </mxGeometry>
        </mxCell>
        <mxCell id="2I1upul8XeKzD1OsK9Qt-53" value="1" style="text;html=1;strokeColor=none;fillColor=none;align=center;verticalAlign=middle;whiteSpace=wrap;rounded=0;" vertex="1" parent="1">
          <mxGeometry x="290" y="105" width="10" height="5" as="geometry" />
        </mxCell>
        <mxCell id="eHYiYTReSIyvD6H9fJW--36" value="Song Rating" style="shape=ext;margin=3;double=1;whiteSpace=wrap;html=1;align=center;" vertex="1" parent="1">
          <mxGeometry x="347.5" y="410" width="95" height="30" as="geometry" />
        </mxCell>
        <mxCell id="eHYiYTReSIyvD6H9fJW--27" value="" style="endArrow=none;html=1;rounded=0;exitX=0;exitY=0.25;exitDx=0;exitDy=0;entryX=1;entryY=0.5;entryDx=0;entryDy=0;" edge="1" parent="1" source="o_Zl0ufaSRQmhO8IQc7K-137" target="eHYiYTReSIyvD6H9fJW--24">
          <mxGeometry relative="1" as="geometry">
            <mxPoint x="313" y="350" as="sourcePoint" />
            <mxPoint x="280" y="378" as="targetPoint" />
          </mxGeometry>
        </mxCell>
        <mxCell id="eHYiYTReSIyvD6H9fJW--31" value="" style="endArrow=none;html=1;rounded=0;exitX=0;exitY=0.75;exitDx=0;exitDy=0;entryX=1;entryY=0;entryDx=0;entryDy=0;" edge="1" parent="1" source="o_Zl0ufaSRQmhO8IQc7K-137" target="eHYiYTReSIyvD6H9fJW--22">
          <mxGeometry relative="1" as="geometry">
            <mxPoint x="313" y="350" as="sourcePoint" />
            <mxPoint x="280" y="378" as="targetPoint" />
          </mxGeometry>
        </mxCell>
        <mxCell id="o_Zl0ufaSRQmhO8IQc7K-158" value="" style="endArrow=none;html=1;rounded=0;exitX=0.5;exitY=0;exitDx=0;exitDy=0;entryX=0.25;entryY=1;entryDx=0;entryDy=0;" edge="1" parent="1" target="o_Zl0ufaSRQmhO8IQc7K-73">
          <mxGeometry relative="1" as="geometry">
            <mxPoint x="515" y="520" as="sourcePoint" />
            <mxPoint x="680" y="490" as="targetPoint" />
          </mxGeometry>
        </mxCell>
        <mxCell id="o_Zl0ufaSRQmhO8IQc7K-159" value="Comment Text" style="ellipse;whiteSpace=wrap;html=1;align=center;" vertex="1" parent="1">
          <mxGeometry x="555" y="510" width="80" height="40" as="geometry" />
        </mxCell>
        <mxCell id="2I1upul8XeKzD1OsK9Qt-55" value="" style="endArrow=none;html=1;rounded=0;entryX=0.048;entryY=0.56;entryDx=0;entryDy=0;entryPerimeter=0;exitX=0.813;exitY=-0.003;exitDx=0;exitDy=0;exitPerimeter=0;" edge="1" parent="1" source="eHYiYTReSIyvD6H9fJW--35" target="o_Zl0ufaSRQmhO8IQc7K-110">
          <mxGeometry relative="1" as="geometry">
            <mxPoint x="320" y="408" as="sourcePoint" />
            <mxPoint x="590" y="256.82000000000005" as="targetPoint" />
          </mxGeometry>
        </mxCell>
        <mxCell id="eHYiYTReSIyvD6H9fJW--35" value="Album Rating" style="shape=ext;margin=3;double=1;whiteSpace=wrap;html=1;align=center;" vertex="1" parent="1">
          <mxGeometry x="235" y="410" width="95" height="30" as="geometry" />
        </mxCell>
        <mxCell id="eHYiYTReSIyvD6H9fJW--34" value="" style="endArrow=none;html=1;rounded=0;exitX=1;exitY=0.5;exitDx=0;exitDy=0;entryX=0;entryY=0.5;entryDx=0;entryDy=0;" edge="1" parent="1" source="o_Zl0ufaSRQmhO8IQc7K-137" target="eHYiYTReSIyvD6H9fJW--33">
          <mxGeometry relative="1" as="geometry">
            <mxPoint x="313" y="328" as="sourcePoint" />
            <mxPoint x="290" y="310" as="targetPoint" />
          </mxGeometry>
        </mxCell>
        <mxCell id="o_Zl0ufaSRQmhO8IQc7K-160" value="" style="endArrow=none;html=1;rounded=0;exitX=0.5;exitY=1;exitDx=0;exitDy=0;entryX=0;entryY=0;entryDx=0;entryDy=0;" edge="1" parent="1" source="o_Zl0ufaSRQmhO8IQc7K-73" target="o_Zl0ufaSRQmhO8IQc7K-159">
          <mxGeometry relative="1" as="geometry">
            <mxPoint x="510" y="510" as="sourcePoint" />
            <mxPoint x="670" y="510" as="targetPoint" />
          </mxGeometry>
        </mxCell>
        <mxCell id="2I1upul8XeKzD1OsK9Qt-58" value="" style="endArrow=none;html=1;rounded=0;exitX=1;exitY=0;exitDx=0;exitDy=0;entryX=0.048;entryY=0.546;entryDx=0;entryDy=0;entryPerimeter=0;" edge="1" parent="1" target="o_Zl0ufaSRQmhO8IQc7K-111">
          <mxGeometry relative="1" as="geometry">
            <mxPoint x="425" y="410" as="sourcePoint" />
            <mxPoint x="608" y="300" as="targetPoint" />
          </mxGeometry>
        </mxCell>
        <mxCell id="o_Zl0ufaSRQmhO8IQc7K-161" value="#upvotes" style="ellipse;whiteSpace=wrap;html=1;align=center;" vertex="1" parent="1">
          <mxGeometry x="626.25" y="445" width="63.75" height="40" as="geometry" />
        </mxCell>
        <mxCell id="2I1upul8XeKzD1OsK9Qt-49" value="" style="endArrow=none;html=1;rounded=0;entryX=-0.005;entryY=0.625;entryDx=0;entryDy=0;entryPerimeter=0;exitX=0.895;exitY=0.606;exitDx=0;exitDy=0;exitPerimeter=0;" edge="1" parent="1" source="o_Zl0ufaSRQmhO8IQc7K-80" target="o_Zl0ufaSRQmhO8IQc7K-73">
          <mxGeometry width="50" height="50" relative="1" as="geometry">
            <mxPoint x="370" y="479.39" as="sourcePoint" />
            <mxPoint x="600" y="470" as="targetPoint" />
          </mxGeometry>
        </mxCell>
        <mxCell id="o_Zl0ufaSRQmhO8IQc7K-162" value="#downvotes" style="ellipse;whiteSpace=wrap;html=1;align=center;" vertex="1" parent="1">
          <mxGeometry x="650" y="500" width="70" height="40" as="geometry" />
        </mxCell>
        <mxCell id="2I1upul8XeKzD1OsK9Qt-56" value="N" style="text;html=1;strokeColor=none;fillColor=none;align=center;verticalAlign=middle;whiteSpace=wrap;rounded=0;" vertex="1" parent="1">
          <mxGeometry x="570" y="247.5" width="20" height="5" as="geometry" />
        </mxCell>
        <mxCell id="2I1upul8XeKzD1OsK9Qt-57" value="1" style="text;html=1;strokeColor=none;fillColor=none;align=center;verticalAlign=middle;whiteSpace=wrap;rounded=0;" vertex="1" parent="1">
          <mxGeometry x="640" y="245" width="10" height="5" as="geometry" />
        </mxCell>
        <mxCell id="o_Zl0ufaSRQmhO8IQc7K-164" value="" style="endArrow=none;html=1;rounded=0;entryX=0;entryY=0.5;entryDx=0;entryDy=0;exitX=1;exitY=0.5;exitDx=0;exitDy=0;" edge="1" parent="1" source="o_Zl0ufaSRQmhO8IQc7K-73" target="o_Zl0ufaSRQmhO8IQc7K-161">
          <mxGeometry relative="1" as="geometry">
            <mxPoint x="530" y="500" as="sourcePoint" />
            <mxPoint x="690" y="500" as="targetPoint" />
          </mxGeometry>
        </mxCell>
        <mxCell id="2I1upul8XeKzD1OsK9Qt-59" value="N" style="text;html=1;strokeColor=none;fillColor=none;align=center;verticalAlign=middle;whiteSpace=wrap;rounded=0;" vertex="1" parent="1">
          <mxGeometry x="590" y="290" width="15" height="5" as="geometry" />
        </mxCell>
        <mxCell id="2I1upul8XeKzD1OsK9Qt-60" value="1" style="text;html=1;strokeColor=none;fillColor=none;align=center;verticalAlign=middle;whiteSpace=wrap;rounded=0;" vertex="1" parent="1">
          <mxGeometry x="680" y="290" height="5" as="geometry" />
        </mxCell>
        <mxCell id="eHYiYTReSIyvD6H9fJW--37" value="Name" style="ellipse;whiteSpace=wrap;html=1;align=center;" vertex="1" parent="1">
          <mxGeometry x="680" y="375" width="50" height="20" as="geometry" />
        </mxCell>
        <mxCell id="o_Zl0ufaSRQmhO8IQc7K-166" value="" style="endArrow=none;html=1;rounded=0;exitX=0.5;exitY=1;exitDx=0;exitDy=0;entryX=0.25;entryY=0;entryDx=0;entryDy=0;" edge="1" parent="1" source="eHYiYTReSIyvD6H9fJW--54" target="o_Zl0ufaSRQmhO8IQc7K-105">
          <mxGeometry relative="1" as="geometry">
            <mxPoint x="732.815" y="171.25" as="sourcePoint" />
            <mxPoint x="747.5" y="183.7500000000001" as="targetPoint" />
          </mxGeometry>
        </mxCell>
        <mxCell id="eHYiYTReSIyvD6H9fJW--38" value="" style="endArrow=none;html=1;rounded=0;entryX=0.5;entryY=0;entryDx=0;entryDy=0;exitX=0.25;exitY=1;exitDx=0;exitDy=0;" edge="1" parent="1" source="o_Zl0ufaSRQmhO8IQc7K-106" target="eHYiYTReSIyvD6H9fJW--37">
          <mxGeometry relative="1" as="geometry">
            <mxPoint x="691" y="475" as="sourcePoint" />
            <mxPoint x="726" y="475" as="targetPoint" />
          </mxGeometry>
        </mxCell>
        <mxCell id="2I1upul8XeKzD1OsK9Qt-65" value="" style="endArrow=none;html=1;rounded=0;entryX=0.042;entryY=0.546;entryDx=0;entryDy=0;exitX=0.996;exitY=0.194;exitDx=0;exitDy=0;entryPerimeter=0;exitPerimeter=0;" edge="1" parent="1" source="o_Zl0ufaSRQmhO8IQc7K-106">
          <mxGeometry relative="1" as="geometry">
            <mxPoint x="780" y="277.5" as="sourcePoint" />
            <mxPoint x="863.3600000000001" y="202.76" as="targetPoint" />
          </mxGeometry>
        </mxCell>
        <mxCell id="2I1upul8XeKzD1OsK9Qt-63" value="1" style="text;html=1;strokeColor=none;fillColor=none;align=center;verticalAlign=middle;whiteSpace=wrap;rounded=0;" vertex="1" parent="1">
          <mxGeometry x="940" y="115" width="10" height="5" as="geometry" />
        </mxCell>
        <mxCell id="o_Zl0ufaSRQmhO8IQc7K-167" value="Genre" style="ellipse;shape=doubleEllipse;margin=3;whiteSpace=wrap;html=1;align=center;" vertex="1" parent="1">
          <mxGeometry x="776.14" y="136.45" width="40" height="37.5" as="geometry" />
        </mxCell>
        <mxCell id="2I1upul8XeKzD1OsK9Qt-61" value="" style="endArrow=none;html=1;rounded=0;entryX=0.052;entryY=0.561;entryDx=0;entryDy=0;exitX=1;exitY=0.25;exitDx=0;exitDy=0;entryPerimeter=0;" edge="1" parent="1">
          <mxGeometry relative="1" as="geometry">
            <mxPoint x="780" y="208" as="sourcePoint" />
            <mxPoint x="866.6600000000003" y="128.04999999999995" as="targetPoint" />
          </mxGeometry>
        </mxCell>
        <mxCell id="o_Zl0ufaSRQmhO8IQc7K-163" value="" style="endArrow=none;html=1;rounded=0;exitX=1;exitY=1;exitDx=0;exitDy=0;entryX=0;entryY=0;entryDx=0;entryDy=0;" edge="1" parent="1" source="o_Zl0ufaSRQmhO8IQc7K-73" target="o_Zl0ufaSRQmhO8IQc7K-162">
          <mxGeometry relative="1" as="geometry">
            <mxPoint x="530" y="500" as="sourcePoint" />
            <mxPoint x="690" y="500" as="targetPoint" />
          </mxGeometry>
        </mxCell>
        <mxCell id="2I1upul8XeKzD1OsK9Qt-62" value="N" style="text;html=1;strokeColor=none;fillColor=none;align=center;verticalAlign=middle;whiteSpace=wrap;rounded=0;" vertex="1" parent="1">
          <mxGeometry x="850" y="120" width="12.5" as="geometry" />
        </mxCell>
        <mxCell id="o_Zl0ufaSRQmhO8IQc7K-169" value="" style="endArrow=none;html=1;rounded=0;entryX=0;entryY=1;entryDx=0;entryDy=0;exitX=1;exitY=0;exitDx=0;exitDy=0;" edge="1" parent="1" source="o_Zl0ufaSRQmhO8IQc7K-105" target="o_Zl0ufaSRQmhO8IQc7K-167">
          <mxGeometry relative="1" as="geometry">
            <mxPoint x="782.5" y="183.7500000000001" as="sourcePoint" />
            <mxPoint x="870" y="218.75" as="targetPoint" />
          </mxGeometry>
        </mxCell>
        <mxCell id="2I1upul8XeKzD1OsK9Qt-67" value="N" style="text;html=1;strokeColor=none;fillColor=none;align=center;verticalAlign=middle;whiteSpace=wrap;rounded=0;" vertex="1" parent="1">
          <mxGeometry x="847.5" y="192.5" width="12.5" as="geometry" />
        </mxCell>
        <mxCell id="o_Zl0ufaSRQmhO8IQc7K-170" value="#upvotes" style="ellipse;whiteSpace=wrap;html=1;align=center;" vertex="1" parent="1">
          <mxGeometry x="550" y="55" width="65" height="40" as="geometry" />
        </mxCell>
        <mxCell id="2I1upul8XeKzD1OsK9Qt-68" value="1" style="text;html=1;strokeColor=none;fillColor=none;align=center;verticalAlign=middle;whiteSpace=wrap;rounded=0;" vertex="1" parent="1">
          <mxGeometry x="932.5" y="187.5" width="10" height="5" as="geometry" />
        </mxCell>
        <mxCell id="o_Zl0ufaSRQmhO8IQc7K-171" value="#downvotes" style="ellipse;whiteSpace=wrap;html=1;align=center;" vertex="1" parent="1">
          <mxGeometry x="520" y="97.5" width="70" height="40" as="geometry" />
        </mxCell>
        <mxCell id="o_Zl0ufaSRQmhO8IQc7K-172" value="" style="endArrow=none;html=1;rounded=0;entryX=0;entryY=0.5;entryDx=0;entryDy=0;exitX=1;exitY=0.25;exitDx=0;exitDy=0;" edge="1" parent="1" source="o_Zl0ufaSRQmhO8IQc7K-138" target="o_Zl0ufaSRQmhO8IQc7K-170">
          <mxGeometry relative="1" as="geometry">
            <mxPoint x="410" y="120" as="sourcePoint" />
            <mxPoint x="570" y="120" as="targetPoint" />
          </mxGeometry>
        </mxCell>
        <mxCell id="o_Zl0ufaSRQmhO8IQc7K-174" value="" style="endArrow=none;html=1;rounded=0;entryX=0;entryY=0.5;entryDx=0;entryDy=0;exitX=1;exitY=0.75;exitDx=0;exitDy=0;" edge="1" parent="1" source="o_Zl0ufaSRQmhO8IQc7K-138" target="o_Zl0ufaSRQmhO8IQc7K-171">
          <mxGeometry relative="1" as="geometry">
            <mxPoint x="410" y="120" as="sourcePoint" />
            <mxPoint x="570" y="120" as="targetPoint" />
          </mxGeometry>
        </mxCell>
        <mxCell id="o_Zl0ufaSRQmhO8IQc7K-175" value="gives upvote/downvote" style="shape=rhombus;perimeter=rhombusPerimeter;whiteSpace=wrap;html=1;align=center;" vertex="1" parent="1">
          <mxGeometry x="220" y="18.75" width="130" height="71.25" as="geometry" />
        </mxCell>
        <mxCell id="o_Zl0ufaSRQmhO8IQc7K-176" value="" style="endArrow=none;html=1;rounded=0;exitX=1;exitY=0;exitDx=0;exitDy=0;entryX=0;entryY=1;entryDx=0;entryDy=0;" edge="1" parent="1" source="o_Zl0ufaSRQmhO8IQc7K-71" target="o_Zl0ufaSRQmhO8IQc7K-175">
          <mxGeometry relative="1" as="geometry">
            <mxPoint x="310" y="140" as="sourcePoint" />
            <mxPoint x="470" y="140" as="targetPoint" />
          </mxGeometry>
        </mxCell>
        <mxCell id="eHYiYTReSIyvD6H9fJW--41" value="Contains" style="shape=rhombus;perimeter=rhombusPerimeter;whiteSpace=wrap;html=1;align=center;" vertex="1" parent="1">
          <mxGeometry x="713.75" y="252.5" width="62.5" height="40" as="geometry" />
        </mxCell>
        <mxCell id="o_Zl0ufaSRQmhO8IQc7K-177" value="" style="endArrow=none;html=1;rounded=0;exitX=1;exitY=1;exitDx=0;exitDy=0;entryX=0;entryY=0.25;entryDx=0;entryDy=0;" edge="1" parent="1" source="o_Zl0ufaSRQmhO8IQc7K-175" target="o_Zl0ufaSRQmhO8IQc7K-138">
          <mxGeometry relative="1" as="geometry">
            <mxPoint x="370" y="140" as="sourcePoint" />
            <mxPoint x="530" y="140" as="targetPoint" />
          </mxGeometry>
        </mxCell>
        <mxCell id="eHYiYTReSIyvD6H9fJW--42" value="" style="endArrow=none;html=1;rounded=0;exitX=0.5;exitY=0;exitDx=0;exitDy=0;entryX=0.5;entryY=1;entryDx=0;entryDy=0;" edge="1" parent="1" source="eHYiYTReSIyvD6H9fJW--41" target="o_Zl0ufaSRQmhO8IQc7K-105">
          <mxGeometry relative="1" as="geometry">
            <mxPoint x="755" y="170" as="sourcePoint" />
            <mxPoint x="755" y="205" as="targetPoint" />
          </mxGeometry>
        </mxCell>
        <mxCell id="2I1upul8XeKzD1OsK9Qt-70" value="N" style="text;html=1;strokeColor=none;fillColor=none;align=center;verticalAlign=middle;whiteSpace=wrap;rounded=0;" vertex="1" parent="1">
          <mxGeometry x="765" y="103.75" width="12.5" height="2.5" as="geometry" />
        </mxCell>
        <mxCell id="eHYiYTReSIyvD6H9fJW--43" value="" style="endArrow=none;html=1;rounded=0;exitX=0.5;exitY=0;exitDx=0;exitDy=0;entryX=0.5;entryY=1;entryDx=0;entryDy=0;" edge="1" parent="1" source="o_Zl0ufaSRQmhO8IQc7K-106" target="eHYiYTReSIyvD6H9fJW--41">
          <mxGeometry relative="1" as="geometry">
            <mxPoint x="755" y="263" as="sourcePoint" />
            <mxPoint x="755" y="235" as="targetPoint" />
          </mxGeometry>
        </mxCell>
        <mxCell id="2I1upul8XeKzD1OsK9Qt-71" value="N" style="text;html=1;strokeColor=none;fillColor=none;align=center;verticalAlign=middle;whiteSpace=wrap;rounded=0;" vertex="1" parent="1">
          <mxGeometry x="770" y="151.25" width="2.5" height="7.5" as="geometry" />
        </mxCell>
        <mxCell id="eHYiYTReSIyvD6H9fJW--44" value="Genre" style="ellipse;shape=doubleEllipse;margin=3;whiteSpace=wrap;html=1;align=center;" vertex="1" parent="1">
          <mxGeometry x="752.5" y="372.5" width="45" height="25" as="geometry" />
        </mxCell>
        <mxCell id="o_Zl0ufaSRQmhO8IQc7K-178" value="upvotes/downvotes" style="shape=rhombus;perimeter=rhombusPerimeter;whiteSpace=wrap;html=1;align=center;" vertex="1" parent="1">
          <mxGeometry x="235" y="490" width="127" height="50" as="geometry" />
        </mxCell>
        <mxCell id="2I1upul8XeKzD1OsK9Qt-73" value="N" style="text;html=1;strokeColor=none;fillColor=none;align=center;verticalAlign=middle;whiteSpace=wrap;rounded=0;" vertex="1" parent="1">
          <mxGeometry x="880" y="245" width="12.5" as="geometry" />
        </mxCell>
        <mxCell id="o_Zl0ufaSRQmhO8IQc7K-179" value="" style="endArrow=none;html=1;rounded=0;entryX=0;entryY=0.25;entryDx=0;entryDy=0;exitX=0;exitY=0.5;exitDx=0;exitDy=0;" edge="1" parent="1" source="o_Zl0ufaSRQmhO8IQc7K-178" target="o_Zl0ufaSRQmhO8IQc7K-71">
          <mxGeometry relative="1" as="geometry">
            <mxPoint x="400" y="310" as="sourcePoint" />
            <mxPoint x="560" y="310" as="targetPoint" />
            <Array as="points">
              <mxPoint x="42" y="515" />
              <mxPoint x="40" y="137" />
            </Array>
          </mxGeometry>
        </mxCell>
        <mxCell id="eHYiYTReSIyvD6H9fJW--48" value="&lt;span style=&quot;border-bottom: 1px dotted&quot;&gt;Comment ID&lt;/span&gt;" style="ellipse;whiteSpace=wrap;html=1;align=center;" vertex="1" parent="1">
          <mxGeometry x="472.5" y="520" width="77.5" height="30" as="geometry" />
        </mxCell>
        <mxCell id="eHYiYTReSIyvD6H9fJW--46" value="" style="endArrow=none;html=1;rounded=0;entryX=0.5;entryY=0;entryDx=0;entryDy=0;exitX=0.75;exitY=1;exitDx=0;exitDy=0;" edge="1" parent="1" source="o_Zl0ufaSRQmhO8IQc7K-106" target="eHYiYTReSIyvD6H9fJW--44">
          <mxGeometry relative="1" as="geometry">
            <mxPoint x="738" y="358" as="sourcePoint" />
            <mxPoint x="715" y="385" as="targetPoint" />
          </mxGeometry>
        </mxCell>
        <mxCell id="2I1upul8XeKzD1OsK9Qt-77" value="N" style="text;html=1;strokeColor=none;fillColor=none;align=center;verticalAlign=middle;whiteSpace=wrap;rounded=0;" vertex="1" parent="1">
          <mxGeometry x="865" y="275" width="2.5" height="7.5" as="geometry" />
        </mxCell>
        <mxCell id="2I1upul8XeKzD1OsK9Qt-78" value="(0,N)" style="text;html=1;strokeColor=none;fillColor=none;align=center;verticalAlign=middle;whiteSpace=wrap;rounded=0;" vertex="1" parent="1">
          <mxGeometry x="918.13" y="320" width="31.87" height="20" as="geometry" />
        </mxCell>
        <mxCell id="o_Zl0ufaSRQmhO8IQc7K-180" value="" style="endArrow=none;html=1;rounded=0;entryX=0;entryY=1;entryDx=0;entryDy=0;exitX=1;exitY=0.5;exitDx=0;exitDy=0;" edge="1" parent="1" source="o_Zl0ufaSRQmhO8IQc7K-178" target="o_Zl0ufaSRQmhO8IQc7K-73">
          <mxGeometry relative="1" as="geometry">
            <mxPoint x="330" y="440" as="sourcePoint" />
            <mxPoint x="490" y="440" as="targetPoint" />
          </mxGeometry>
        </mxCell>
        <mxCell id="eHYiYTReSIyvD6H9fJW--49" value="&lt;span style=&quot;border-bottom: 1px dotted&quot;&gt;Review ID&lt;/span&gt;" style="ellipse;whiteSpace=wrap;html=1;align=center;" vertex="1" parent="1">
          <mxGeometry x="362" y="50" width="77.5" height="30" as="geometry" />
        </mxCell>
        <mxCell id="2I1upul8XeKzD1OsK9Qt-81" value="(0,N)" style="text;html=1;strokeColor=none;fillColor=none;align=center;verticalAlign=middle;whiteSpace=wrap;rounded=0;" vertex="1" parent="1">
          <mxGeometry x="850.31" y="327.5" width="31.87" height="20" as="geometry" />
        </mxCell>
        <mxCell id="eHYiYTReSIyvD6H9fJW--50" value="&lt;span style=&quot;border-bottom: 1px dotted&quot;&gt;Song ID&lt;/span&gt;" style="ellipse;whiteSpace=wrap;html=1;align=center;" vertex="1" parent="1">
          <mxGeometry x="701.25" y="400" width="58.75" height="30" as="geometry" />
        </mxCell>
        <mxCell id="o_Zl0ufaSRQmhO8IQc7K-182" value="N" style="text;html=1;align=center;verticalAlign=middle;resizable=0;points=[];autosize=1;strokeColor=none;fillColor=none;" vertex="1" parent="1">
          <mxGeometry x="215" y="488" width="30" height="30" as="geometry" />
        </mxCell>
        <mxCell id="eHYiYTReSIyvD6H9fJW--52" value="" style="endArrow=none;html=1;rounded=0;entryX=0.5;entryY=0;entryDx=0;entryDy=0;exitX=0.5;exitY=1;exitDx=0;exitDy=0;" edge="1" parent="1" source="o_Zl0ufaSRQmhO8IQc7K-106" target="eHYiYTReSIyvD6H9fJW--50">
          <mxGeometry relative="1" as="geometry">
            <mxPoint x="738" y="358" as="sourcePoint" />
            <mxPoint x="715" y="385" as="targetPoint" />
          </mxGeometry>
        </mxCell>
        <mxCell id="o_Zl0ufaSRQmhO8IQc7K-181" value="N" style="text;html=1;align=center;verticalAlign=middle;resizable=0;points=[];autosize=1;strokeColor=none;fillColor=none;" vertex="1" parent="1">
          <mxGeometry x="345" y="488" width="30" height="30" as="geometry" />
        </mxCell>
        <mxCell id="eHYiYTReSIyvD6H9fJW--54" value="&lt;span style=&quot;border-bottom: 1px dotted&quot;&gt;Album ID&lt;/span&gt;" style="ellipse;whiteSpace=wrap;html=1;align=center;" vertex="1" parent="1">
          <mxGeometry x="693.75" y="142.5" width="58.75" height="30" as="geometry" />
        </mxCell>
        <mxCell id="2I1upul8XeKzD1OsK9Qt-83" value="(0,N)" style="text;html=1;strokeColor=none;fillColor=none;align=center;verticalAlign=middle;whiteSpace=wrap;rounded=0;" vertex="1" parent="1">
          <mxGeometry x="929.06" y="415" width="31.87" height="20" as="geometry" />
        </mxCell>
        <mxCell id="2I1upul8XeKzD1OsK9Qt-84" value="(0,N)" style="text;html=1;strokeColor=none;fillColor=none;align=center;verticalAlign=middle;whiteSpace=wrap;rounded=0;" vertex="1" parent="1">
          <mxGeometry x="850.3199999999999" y="420" width="31.87" height="20" as="geometry" />
        </mxCell>
        <mxCell id="DbJ6HfeW7WeGlLHHmVLn-2" value="" style="endArrow=none;html=1;rounded=0;entryX=0.091;entryY=0.594;entryDx=0;entryDy=0;entryPerimeter=0;" edge="1" parent="1" target="o_Zl0ufaSRQmhO8IQc7K-108">
          <mxGeometry relative="1" as="geometry">
            <mxPoint x="393" y="230" as="sourcePoint" />
            <mxPoint x="585" y="150" as="targetPoint" />
            <Array as="points">
              <mxPoint x="393" y="155" />
            </Array>
          </mxGeometry>
        </mxCell>
        <mxCell id="DbJ6HfeW7WeGlLHHmVLn-3" value="N" style="text;html=1;strokeColor=none;fillColor=none;align=center;verticalAlign=middle;whiteSpace=wrap;rounded=0;" vertex="1" parent="1">
          <mxGeometry x="577.5" y="155" width="10" height="5" as="geometry" />
        </mxCell>
        <mxCell id="DbJ6HfeW7WeGlLHHmVLn-5" value="1" style="text;html=1;strokeColor=none;fillColor=none;align=center;verticalAlign=middle;whiteSpace=wrap;rounded=0;" vertex="1" parent="1">
          <mxGeometry x="635" y="150" width="10" height="5" as="geometry" />
        </mxCell>
        <mxCell id="DbJ6HfeW7WeGlLHHmVLn-6" value="" style="endArrow=none;html=1;rounded=0;exitX=1;exitY=0.105;exitDx=0;exitDy=0;entryX=0.056;entryY=0.563;entryDx=0;entryDy=0;entryPerimeter=0;exitPerimeter=0;" edge="1" parent="1" source="o_Zl0ufaSRQmhO8IQc7K-140" target="o_Zl0ufaSRQmhO8IQc7K-109">
          <mxGeometry relative="1" as="geometry">
            <mxPoint x="521.2500000000002" y="235" as="sourcePoint" />
            <mxPoint x="581.25" y="210" as="targetPoint" />
          </mxGeometry>
        </mxCell>
        <mxCell id="DbJ6HfeW7WeGlLHHmVLn-7" value="N" style="text;html=1;strokeColor=none;fillColor=none;align=center;verticalAlign=middle;whiteSpace=wrap;rounded=0;" vertex="1" parent="1">
          <mxGeometry x="570" y="195" width="10" height="5" as="geometry" />
        </mxCell>
        <mxCell id="DbJ6HfeW7WeGlLHHmVLn-8" value="1" style="text;html=1;strokeColor=none;fillColor=none;align=center;verticalAlign=middle;whiteSpace=wrap;rounded=0;" vertex="1" parent="1">
          <mxGeometry x="653.13" y="200" width="6.87" height="5" as="geometry" />
        </mxCell>
        <mxCell id="DbJ6HfeW7WeGlLHHmVLn-9" value="" style="endArrow=none;html=1;rounded=0;exitX=0.5;exitY=0;exitDx=0;exitDy=0;entryX=0.534;entryY=0.967;entryDx=0;entryDy=0;entryPerimeter=0;" edge="1" parent="1" target="o_Zl0ufaSRQmhO8IQc7K-99">
          <mxGeometry relative="1" as="geometry">
            <mxPoint x="555" y="450" as="sourcePoint" />
            <mxPoint x="555" y="420" as="targetPoint" />
          </mxGeometry>
        </mxCell>
        <mxCell id="DbJ6HfeW7WeGlLHHmVLn-10" value="N" style="text;html=1;strokeColor=none;fillColor=none;align=center;verticalAlign=middle;whiteSpace=wrap;rounded=0;" vertex="1" parent="1">
          <mxGeometry x="555" y="420" width="15" height="5" as="geometry" />
        </mxCell>
        <mxCell id="DbJ6HfeW7WeGlLHHmVLn-12" value="1" style="text;html=1;strokeColor=none;fillColor=none;align=center;verticalAlign=middle;whiteSpace=wrap;rounded=0;" vertex="1" parent="1">
          <mxGeometry x="550" y="372.5" width="10" height="5" as="geometry" />
        </mxCell>
        <mxCell id="DbJ6HfeW7WeGlLHHmVLn-13" value="1" style="text;html=1;align=center;verticalAlign=middle;resizable=0;points=[];autosize=1;strokeColor=none;fillColor=none;" vertex="1" parent="1">
          <mxGeometry x="218" y="55" width="30" height="30" as="geometry" />
        </mxCell>
        <mxCell id="DbJ6HfeW7WeGlLHHmVLn-14" value="N" style="text;html=1;align=center;verticalAlign=middle;resizable=0;points=[];autosize=1;strokeColor=none;fillColor=none;" vertex="1" parent="1">
          <mxGeometry x="323" y="55" width="30" height="30" as="geometry" />
        </mxCell>
        <mxCell id="ZXEZ7dp9XjpjEU1cNxrp-1" value="Releases" style="shape=rhombus;double=1;perimeter=rhombusPerimeter;whiteSpace=wrap;html=1;align=center;" vertex="1" parent="1">
          <mxGeometry x="860" y="105" width="90" height="45" as="geometry" />
        </mxCell>
        <mxCell id="ZXEZ7dp9XjpjEU1cNxrp-2" value="Releases single" style="shape=rhombus;double=1;perimeter=rhombusPerimeter;whiteSpace=wrap;html=1;align=center;" vertex="1" parent="1">
          <mxGeometry x="857.5" y="173.75" width="90" height="57.5" as="geometry" />
        </mxCell>
        <mxCell id="DbJ6HfeW7WeGlLHHmVLn-15" value="(0,1)" style="text;html=1;align=center;verticalAlign=middle;resizable=0;points=[];autosize=1;strokeColor=none;fillColor=none;" vertex="1" parent="1">
          <mxGeometry x="705.62" y="280" width="50" height="30" as="geometry" />
        </mxCell>
        <mxCell id="DbJ6HfeW7WeGlLHHmVLn-16" value="(1,N)" style="text;html=1;strokeColor=none;fillColor=none;align=center;verticalAlign=middle;whiteSpace=wrap;rounded=0;" vertex="1" parent="1">
          <mxGeometry x="713.1299999999999" y="235" width="31.87" height="20" as="geometry" />
        </mxCell>
        <mxCell id="DbJ6HfeW7WeGlLHHmVLn-18" value="Age" style="ellipse;whiteSpace=wrap;html=1;align=center;" vertex="1" parent="1">
          <mxGeometry x="817.5" y="48.13" width="50" height="20" as="geometry" />
        </mxCell>
        <mxCell id="DbJ6HfeW7WeGlLHHmVLn-19" value="" style="endArrow=none;html=1;rounded=0;exitX=0.058;exitY=0.709;exitDx=0;exitDy=0;entryX=0.75;entryY=0;entryDx=0;entryDy=0;exitPerimeter=0;" edge="1" parent="1">
          <mxGeometry relative="1" as="geometry">
            <mxPoint x="820.4000000000001" y="62.92999999999995" as="sourcePoint" />
            <mxPoint x="790" y="78.75" as="targetPoint" />
          </mxGeometry>
        </mxCell>
        <mxCell id="DbJ6HfeW7WeGlLHHmVLn-20" value="Gender" style="ellipse;whiteSpace=wrap;html=1;align=center;" vertex="1" parent="1">
          <mxGeometry x="660" y="48.13" width="50" height="20" as="geometry" />
        </mxCell>
        <mxCell id="N0L9XB7R50HnnU9U2Vyz-4" value="" style="endArrow=none;html=1;rounded=0;entryX=0;entryY=1;entryDx=0;entryDy=0;exitX=1;exitY=0.25;exitDx=0;exitDy=0;" edge="1" parent="1" source="o_Zl0ufaSRQmhO8IQc7K-79" target="N0L9XB7R50HnnU9U2Vyz-3">
          <mxGeometry relative="1" as="geometry">
            <mxPoint x="810" y="180" as="sourcePoint" />
            <mxPoint x="970" y="180" as="targetPoint" />
          </mxGeometry>
        </mxCell>
        <mxCell id="DbJ6HfeW7WeGlLHHmVLn-21" value="" style="endArrow=none;html=1;rounded=0;exitX=1;exitY=0.5;exitDx=0;exitDy=0;entryX=0.25;entryY=0;entryDx=0;entryDy=0;" edge="1" parent="1">
          <mxGeometry relative="1" as="geometry">
            <mxPoint x="710" y="58.750000000000114" as="sourcePoint" />
            <mxPoint x="730" y="76.25" as="targetPoint" />
          </mxGeometry>
        </mxCell>
        <mxCell id="DbJ6HfeW7WeGlLHHmVLn-22" value="Age" style="ellipse;whiteSpace=wrap;html=1;align=center;" vertex="1" parent="1">
          <mxGeometry x="1020" y="27.5" width="50" height="20" as="geometry" />
        </mxCell>
        <mxCell id="DbJ6HfeW7WeGlLHHmVLn-23" value="" style="endArrow=none;html=1;rounded=0;exitX=0.5;exitY=1;exitDx=0;exitDy=0;entryX=0.75;entryY=0;entryDx=0;entryDy=0;" edge="1" parent="1" source="DbJ6HfeW7WeGlLHHmVLn-22">
          <mxGeometry relative="1" as="geometry">
            <mxPoint x="1051" y="53" as="sourcePoint" />
            <mxPoint x="1039" y="80" as="targetPoint" />
          </mxGeometry>
        </mxCell>
        <mxCell id="ZXEZ7dp9XjpjEU1cNxrp-5" value="Average rating score&amp;nbsp;" style="ellipse;whiteSpace=wrap;html=1;align=center;dashed=1;" vertex="1" parent="1">
          <mxGeometry x="615" y="345" width="75" height="35" as="geometry" />
        </mxCell>
        <mxCell id="DbJ6HfeW7WeGlLHHmVLn-24" value="Gender" style="ellipse;whiteSpace=wrap;html=1;align=center;" vertex="1" parent="1">
          <mxGeometry x="960.9300000000001" y="42.5" width="50" height="20" as="geometry" />
        </mxCell>
        <mxCell id="ZXEZ7dp9XjpjEU1cNxrp-6" value="" style="endArrow=none;html=1;rounded=0;exitX=1;exitY=0.5;exitDx=0;exitDy=0;entryX=0;entryY=1;entryDx=0;entryDy=0;" edge="1" parent="1" source="ZXEZ7dp9XjpjEU1cNxrp-5" target="o_Zl0ufaSRQmhO8IQc7K-106">
          <mxGeometry relative="1" as="geometry">
            <mxPoint x="45" y="486.25" as="sourcePoint" />
            <mxPoint x="605" y="309.25" as="targetPoint" />
          </mxGeometry>
        </mxCell>
        <mxCell id="ZXEZ7dp9XjpjEU1cNxrp-7" value="Average rating score&amp;nbsp;" style="ellipse;whiteSpace=wrap;html=1;align=center;dashed=1;" vertex="1" parent="1">
          <mxGeometry x="640" y="110" width="75" height="35" as="geometry" />
        </mxCell>
        <mxCell id="ZXEZ7dp9XjpjEU1cNxrp-8" value="" style="endArrow=none;html=1;rounded=0;exitX=0.5;exitY=1;exitDx=0;exitDy=0;entryX=0;entryY=0;entryDx=0;entryDy=0;" edge="1" parent="1" source="ZXEZ7dp9XjpjEU1cNxrp-7" target="o_Zl0ufaSRQmhO8IQc7K-105">
          <mxGeometry relative="1" as="geometry">
            <mxPoint x="697.5" y="133.7500000000001" as="sourcePoint" />
            <mxPoint x="730" y="183.7500000000001" as="targetPoint" />
          </mxGeometry>
        </mxCell>
        <mxCell id="N0L9XB7R50HnnU9U2Vyz-1" value="Bio" style="ellipse;whiteSpace=wrap;html=1;align=center;" vertex="1" parent="1">
          <mxGeometry x="1050" y="162.5" width="40" height="17.5" as="geometry" />
        </mxCell>
        <mxCell id="DbJ6HfeW7WeGlLHHmVLn-26" value="Gender" style="ellipse;whiteSpace=wrap;html=1;align=center;" vertex="1" parent="1">
          <mxGeometry x="65" y="170" width="50" height="20" as="geometry" />
        </mxCell>
        <mxCell id="DbJ6HfeW7WeGlLHHmVLn-25" value="" style="endArrow=none;html=1;rounded=0;exitX=1;exitY=1;exitDx=0;exitDy=0;entryX=0;entryY=0;entryDx=0;entryDy=0;" edge="1" parent="1" source="DbJ6HfeW7WeGlLHHmVLn-24" target="o_Zl0ufaSRQmhO8IQc7K-70">
          <mxGeometry relative="1" as="geometry">
            <mxPoint x="1010.93" y="62.5" as="sourcePoint" />
            <mxPoint x="1004.93" y="94.5" as="targetPoint" />
          </mxGeometry>
        </mxCell>
        <mxCell id="ZXEZ7dp9XjpjEU1cNxrp-4" value="" style="endArrow=none;html=1;rounded=0;entryX=0.5;entryY=0;entryDx=0;entryDy=0;exitX=1;exitY=0.75;exitDx=0;exitDy=0;" edge="1" parent="1" source="o_Zl0ufaSRQmhO8IQc7K-70" target="ZXEZ7dp9XjpjEU1cNxrp-3">
          <mxGeometry relative="1" as="geometry">
            <mxPoint x="1180.5" y="72.5" as="sourcePoint" />
            <mxPoint x="1132.5" y="109.5" as="targetPoint" />
          </mxGeometry>
        </mxCell>
        <mxCell id="DbJ6HfeW7WeGlLHHmVLn-27" value="" style="endArrow=none;html=1;rounded=0;exitX=0.5;exitY=1;exitDx=0;exitDy=0;entryX=1;entryY=0;entryDx=0;entryDy=0;" edge="1" parent="1">
          <mxGeometry relative="1" as="geometry">
            <mxPoint x="110" y="160" as="sourcePoint" />
            <mxPoint x="105" y="172" as="targetPoint" />
          </mxGeometry>
        </mxCell>
        <mxCell id="N0L9XB7R50HnnU9U2Vyz-3" value="Bio" style="ellipse;whiteSpace=wrap;html=1;align=center;" vertex="1" parent="1">
          <mxGeometry x="825" y="20" width="40" height="23.75" as="geometry" />
        </mxCell>
        <mxCell id="DbJ6HfeW7WeGlLHHmVLn-28" value="Age" style="ellipse;whiteSpace=wrap;html=1;align=center;" vertex="1" parent="1">
          <mxGeometry x="180" y="142.5" width="50" height="20" as="geometry" />
        </mxCell>
        <mxCell id="DbJ6HfeW7WeGlLHHmVLn-29" value="" style="endArrow=none;html=1;rounded=0;exitX=0;exitY=0.5;exitDx=0;exitDy=0;entryX=1;entryY=0;entryDx=0;entryDy=0;" edge="1" parent="1" source="DbJ6HfeW7WeGlLHHmVLn-28">
          <mxGeometry relative="1" as="geometry">
            <mxPoint x="160" y="139" as="sourcePoint" />
            <mxPoint x="155" y="151" as="targetPoint" />
          </mxGeometry>
        </mxCell>
        <mxCell id="ZXEZ7dp9XjpjEU1cNxrp-3" value="Genre" style="ellipse;shape=doubleEllipse;margin=3;whiteSpace=wrap;html=1;align=center;" vertex="1" parent="1">
          <mxGeometry x="1105" y="107.5" width="45" height="25" as="geometry" />
        </mxCell>
        <mxCell id="DbJ6HfeW7WeGlLHHmVLn-30" value="Name" style="ellipse;whiteSpace=wrap;html=1;align=center;" vertex="1" parent="1">
          <mxGeometry x="797.5" y="195" width="40" height="15" as="geometry" />
        </mxCell>
        <mxCell id="N0L9XB7R50HnnU9U2Vyz-2" value="" style="endArrow=none;html=1;rounded=0;exitX=0.5;exitY=0;exitDx=0;exitDy=0;entryX=0.87;entryY=1.008;entryDx=0;entryDy=0;entryPerimeter=0;" edge="1" parent="1" source="N0L9XB7R50HnnU9U2Vyz-1" target="o_Zl0ufaSRQmhO8IQc7K-70">
          <mxGeometry relative="1" as="geometry">
            <mxPoint x="1100" y="180" as="sourcePoint" />
            <mxPoint x="1260" y="180" as="targetPoint" />
          </mxGeometry>
        </mxCell>
        <mxCell id="DbJ6HfeW7WeGlLHHmVLn-31" value="" style="endArrow=none;html=1;rounded=0;entryX=0;entryY=0.5;entryDx=0;entryDy=0;exitX=1;exitY=0.5;exitDx=0;exitDy=0;" edge="1" parent="1" source="o_Zl0ufaSRQmhO8IQc7K-105" target="DbJ6HfeW7WeGlLHHmVLn-30">
          <mxGeometry relative="1" as="geometry">
            <mxPoint x="790" y="230" as="sourcePoint" />
            <mxPoint x="792" y="203" as="targetPoint" />
          </mxGeometry>
        </mxCell>
        <mxCell id="DbJ6HfeW7WeGlLHHmVLn-32" value="Album Flow" style="ellipse;whiteSpace=wrap;html=1;align=center;" vertex="1" parent="1">
          <mxGeometry x="145" y="410" width="50" height="35" as="geometry" />
        </mxCell>
        <mxCell id="DbJ6HfeW7WeGlLHHmVLn-33" value="" style="endArrow=none;html=1;rounded=0;exitX=0;exitY=0.5;exitDx=0;exitDy=0;entryX=1;entryY=0.5;entryDx=0;entryDy=0;" edge="1" parent="1" source="eHYiYTReSIyvD6H9fJW--35" target="DbJ6HfeW7WeGlLHHmVLn-32">
          <mxGeometry relative="1" as="geometry">
            <mxPoint x="228" y="425" as="sourcePoint" />
            <mxPoint x="182" y="463" as="targetPoint" />
          </mxGeometry>
        </mxCell>
        <mxCell id="ZXEZ7dp9XjpjEU1cNxrp-9" value="" style="endArrow=none;html=1;rounded=0;entryX=0;entryY=0.5;entryDx=0;entryDy=0;exitX=1;exitY=0.75;exitDx=0;exitDy=0;" edge="1" parent="1" source="o_Zl0ufaSRQmhO8IQc7K-79" target="ZXEZ7dp9XjpjEU1cNxrp-10">
          <mxGeometry relative="1" as="geometry">
            <mxPoint x="807.5" y="75" as="sourcePoint" />
            <mxPoint x="860" y="81.5" as="targetPoint" />
          </mxGeometry>
        </mxCell>
        <mxCell id="ZXEZ7dp9XjpjEU1cNxrp-10" value="Genre" style="ellipse;shape=doubleEllipse;margin=3;whiteSpace=wrap;html=1;align=center;" vertex="1" parent="1">
          <mxGeometry x="831.25" y="72.5" width="45" height="24.5" as="geometry" />
        </mxCell>
        <mxCell id="xCmLpLcHsI2Z0wUR_Su--3" value="&lt;span style=&quot;border-bottom: 1px dotted&quot;&gt;Rating ID&lt;/span&gt;" style="ellipse;whiteSpace=wrap;html=1;align=center;" vertex="1" parent="1">
          <mxGeometry x="356" y="277.5" width="77.5" height="30" as="geometry" />
        </mxCell>
        <mxCell id="xCmLpLcHsI2Z0wUR_Su--4" value="" style="endArrow=none;html=1;rounded=0;entryX=0;entryY=0.5;entryDx=0;entryDy=0;exitX=1;exitY=0;exitDx=0;exitDy=0;" edge="1" parent="1" source="o_Zl0ufaSRQmhO8IQc7K-137" target="xCmLpLcHsI2Z0wUR_Su--3">
          <mxGeometry relative="1" as="geometry">
            <mxPoint x="356" y="370" as="sourcePoint" />
            <mxPoint x="340.5" y="345" as="targetPoint" />
          </mxGeometry>
        </mxCell>
        <mxCell id="KAWvj3xyQ-CnemeujbsF-1" value="" style="endArrow=none;html=1;rounded=0;exitX=0.5;exitY=0;exitDx=0;exitDy=0;entryX=1;entryY=1;entryDx=0;entryDy=0;" edge="1" parent="1" source="eHYiYTReSIyvD6H9fJW--16" target="KAWvj3xyQ-CnemeujbsF-2">
          <mxGeometry width="50" height="50" relative="1" as="geometry">
            <mxPoint x="170" y="92.5" as="sourcePoint" />
            <mxPoint x="180" y="60" as="targetPoint" />
          </mxGeometry>
        </mxCell>
        <mxCell id="KAWvj3xyQ-CnemeujbsF-2" value="Fname" style="ellipse;whiteSpace=wrap;html=1;align=center;" vertex="1" parent="1">
          <mxGeometry x="135" y="38.75" width="50" height="20" as="geometry" />
        </mxCell>
        <mxCell id="KAWvj3xyQ-CnemeujbsF-3" value="Lname" style="ellipse;whiteSpace=wrap;html=1;align=center;" vertex="1" parent="1">
          <mxGeometry x="180" y="18.75" width="50" height="20" as="geometry" />
        </mxCell>
        <mxCell id="KAWvj3xyQ-CnemeujbsF-4" value="" style="endArrow=none;html=1;rounded=0;exitX=1;exitY=0;exitDx=0;exitDy=0;entryX=0.5;entryY=1;entryDx=0;entryDy=0;" edge="1" parent="1" source="eHYiYTReSIyvD6H9fJW--16" target="KAWvj3xyQ-CnemeujbsF-3">
          <mxGeometry width="50" height="50" relative="1" as="geometry">
            <mxPoint x="170" y="108" as="sourcePoint" />
            <mxPoint x="188" y="66" as="targetPoint" />
          </mxGeometry>
        </mxCell>
        <mxCell id="KAWvj3xyQ-CnemeujbsF-5" value="Vote Type" style="ellipse;whiteSpace=wrap;html=1;align=center;" vertex="1" parent="1">
          <mxGeometry x="311.25" y="550" width="63.75" height="40" as="geometry" />
        </mxCell>
        <mxCell id="KAWvj3xyQ-CnemeujbsF-6" value="" style="endArrow=none;html=1;rounded=0;exitX=0.5;exitY=0;exitDx=0;exitDy=0;entryX=1;entryY=1;entryDx=0;entryDy=0;" edge="1" parent="1" source="KAWvj3xyQ-CnemeujbsF-5" target="o_Zl0ufaSRQmhO8IQc7K-178">
          <mxGeometry relative="1" as="geometry">
            <mxPoint x="525" y="530" as="sourcePoint" />
            <mxPoint x="541" y="490" as="targetPoint" />
          </mxGeometry>
        </mxCell>
        <mxCell id="KAWvj3xyQ-CnemeujbsF-7" value="Vote Type" style="ellipse;whiteSpace=wrap;html=1;align=center;" vertex="1" parent="1">
          <mxGeometry x="328" y="2.5" width="63.75" height="40" as="geometry" />
        </mxCell>
        <mxCell id="KAWvj3xyQ-CnemeujbsF-8" value="" style="endArrow=none;html=1;rounded=0;exitX=0;exitY=0.5;exitDx=0;exitDy=0;entryX=1;entryY=0;entryDx=0;entryDy=0;" edge="1" parent="1" source="KAWvj3xyQ-CnemeujbsF-7" target="o_Zl0ufaSRQmhO8IQc7K-175">
          <mxGeometry relative="1" as="geometry">
            <mxPoint x="558.75" y="-12.5" as="sourcePoint" />
            <mxPoint x="363.75" y="-14.5" as="targetPoint" />
          </mxGeometry>
        </mxCell>
      </root>
    </mxGraphModel>
  </diagram>
</mxfile>
